<?xml version="1.0" encoding="utf-8"?>
<!-- Generator: Adobe Illustrator 16.0.0, SVG Export Plug-In . SVG Version: 6.00 Build 0)  -->
<!DOCTYPE svg PUBLIC "-//W3C//DTD SVG 1.1//EN" "http://www.w3.org/Graphics/SVG/1.1/DTD/svg11.dtd">
<svg version="1.1" id="Layer_1" xmlns="http://www.w3.org/2000/svg" xmlns:xlink="http://www.w3.org/1999/xlink" x="0px" y="0px"
	 width="1400px" height="980px" viewBox="0 0 1400 980" enable-background="new 0 0 1400 980" xml:space="preserve">
<g>
	<g>
		<g>
			<rect fill="#FFFFFF" width="1400" height="980"/>
		</g>
	</g>
	<g>
		<path fill="#FFFFFF" d="M496.8,787.2c-0.1-5.4-1.1-10.8-3-16l-14.1,2.6c-0.4-0.9-0.8-1.9-1.4-2.8c-0.5-0.9-1.1-1.8-1.6-2.7
			l9.9-10.4c-3.4-4.4-7.4-8.2-11.8-11.2l-9.9,10.4c-1.8-1.1-3.7-2-5.6-2.7l1.9-14.2c-5.2-1.6-10.7-2.3-16.2-2.1l-1.8,14.2
			c-2.1,0.2-4.1,0.6-6.1,1.2l-6.9-12.6c-2.5,0.9-5,2-7.5,3.3c-2.4,1.3-4.7,2.8-6.8,4.5l6.9,12.6c-1.6,1.4-3,2.9-4.3,4.5l-12.9-6.1
			c-3.1,4.5-5.5,9.5-7,14.7l12.9,6.2c-0.4,2-0.7,4.1-0.8,6.2l-14.1,2.6c0.1,5.4,1.1,10.8,3,16l14.1-2.6c0.4,0.9,0.8,1.9,1.4,2.8
			c0.5,0.9,1.1,1.8,1.6,2.7l-9.9,10.4c3.4,4.4,7.4,8.2,11.8,11.2l9.9-10.4c1.8,1.1,3.7,2,5.6,2.7l-1.9,14.2
			c5.2,1.6,10.7,2.3,16.2,2.1l1.8-14.2c2.1-0.2,4.1-0.6,6.1-1.2l6.9,12.6c2.5-0.9,5-2,7.5-3.3c2.4-1.3,4.7-2.8,6.8-4.5l-6.9-12.6
			c1.6-1.4,3-2.9,4.3-4.5l12.9,6.1c3.1-4.5,5.5-9.5,7-14.7l-12.9-6.2c0.4-2,0.7-4.1,0.8-6.2L496.8,787.2z M458.3,809.7
			c-11.9,6.5-26.7,2.1-33.2-9.8c-6.5-11.9-2.1-26.7,9.8-33.2c11.9-6.5,26.7-2.1,33.2,9.8C474.5,788.4,470.2,803.2,458.3,809.7z"/>
		<path d="M446.7,839.8c-5.1,0-10.1-0.7-14.9-2.2c-0.7-0.2-1.1-0.9-1-1.5l1.7-13.1c-1.3-0.5-2.6-1.1-3.8-1.8l-9.1,9.6
			c-0.5,0.5-1.3,0.6-1.8,0.2c-4.7-3.2-8.8-7-12.2-11.5c-0.4-0.6-0.4-1.3,0.1-1.8l9.1-9.6c-0.4-0.6-0.7-1.2-1.1-1.8
			c-0.3-0.6-0.6-1.3-0.9-1.9l-13,2.4c-0.7,0.1-1.4-0.3-1.6-0.9c-1.9-5.3-3-10.8-3.1-16.5c0-0.7,0.5-1.3,1.2-1.4l13-2.4
			c0.1-1.4,0.3-2.8,0.5-4.2l-11.9-5.7c-0.6-0.3-0.9-1-0.8-1.7c1.6-5.4,4-10.5,7.2-15.1c0.4-0.6,1.2-0.8,1.8-0.5l11.9,5.7
			c0.9-1,1.8-2,2.9-3.1l-6.3-11.6c-0.3-0.6-0.2-1.4,0.4-1.8c2.2-1.7,4.6-3.3,7-4.6c2.4-1.3,5-2.5,7.7-3.4c0.6-0.2,1.4,0.1,1.7,0.7
			l6.3,11.6c1.4-0.4,2.8-0.6,4.2-0.8l1.7-13.1c0.1-0.7,0.7-1.2,1.4-1.2c5.6-0.2,11.2,0.6,16.6,2.2c0.7,0.2,1.1,0.9,1,1.5l-1.7,13.1
			c1.3,0.5,2.6,1.1,3.8,1.8l9.1-9.6c0.5-0.5,1.3-0.6,1.8-0.2c4.7,3.2,8.8,7,12.2,11.5c0.4,0.6,0.4,1.3-0.1,1.8l-9.1,9.6
			c0.4,0.6,0.7,1.2,1.1,1.8c0.3,0.6,0.7,1.3,0.9,1.9l13-2.4c0.7-0.1,1.4,0.3,1.6,0.9c1.9,5.3,3,10.8,3.1,16.5c0,0.7-0.5,1.3-1.2,1.4
			l-13,2.4c-0.1,1.4-0.3,2.8-0.5,4.2l11.9,5.7c0.6,0.3,0.9,1,0.8,1.7c-1.6,5.4-4,10.5-7.2,15.1c-0.4,0.6-1.1,0.8-1.8,0.5l-11.9-5.7
			c-0.9,1-1.9,2.1-2.9,3.1l6.3,11.6c0.3,0.6,0.2,1.4-0.4,1.8c-2.2,1.7-4.6,3.3-7,4.6c-2.4,1.3-5,2.5-7.7,3.4
			c-0.7,0.2-1.4-0.1-1.7-0.7l-6.3-11.6c-1.4,0.4-2.8,0.6-4.2,0.8l-1.7,13.1c-0.1,0.7-0.7,1.2-1.4,1.2
			C447.8,839.8,447.2,839.8,446.7,839.8z M433.7,835.2c4.3,1.2,8.7,1.7,13.3,1.7l1.7-13c0.1-0.7,0.6-1.2,1.3-1.2
			c1.9-0.2,3.8-0.5,5.9-1.1c0.6-0.2,1.3,0.1,1.6,0.7l6.3,11.5c2.1-0.8,4.2-1.7,6.1-2.8c2-1.1,3.9-2.3,5.7-3.6l-6.3-11.5
			c-0.3-0.6-0.2-1.3,0.3-1.7c1.6-1.4,3-2.9,4.1-4.3c0.4-0.5,1.1-0.7,1.7-0.4l11.8,5.6c2.5-3.8,4.4-7.9,5.8-12.2l-11.8-5.6
			c-0.6-0.3-0.9-0.9-0.8-1.6c0.4-1.9,0.7-3.9,0.8-5.9c0-0.7,0.5-1.2,1.2-1.3l12.9-2.4c-0.2-4.5-1-9-2.5-13.2l-12.9,2.4
			c-0.7,0.1-1.3-0.2-1.6-0.8c-0.4-0.9-0.8-1.8-1.3-2.7c-0.5-0.9-1-1.7-1.6-2.6c-0.4-0.6-0.3-1.3,0.2-1.8l9-9.5
			c-2.8-3.5-6.1-6.6-9.8-9.2l-9,9.5c-0.5,0.5-1.2,0.6-1.8,0.2c-1.7-1-3.6-1.9-5.4-2.6c-0.6-0.2-1-0.9-0.9-1.5l1.7-13
			c-4.3-1.2-8.9-1.7-13.3-1.7l-1.7,13c-0.1,0.7-0.6,1.2-1.3,1.2c-1.9,0.2-3.8,0.6-5.9,1.1c-0.6,0.2-1.3-0.1-1.6-0.7l-6.3-11.5
			c-2.1,0.8-4.2,1.7-6.1,2.8c-2,1.1-3.9,2.3-5.7,3.6l6.3,11.5c0.3,0.6,0.2,1.3-0.3,1.7c-1.6,1.4-3,2.9-4.1,4.3
			c-0.4,0.5-1.1,0.7-1.7,0.4l-11.8-5.6c-2.5,3.8-4.4,7.8-5.8,12.2l11.8,5.6c0.6,0.3,0.9,0.9,0.8,1.6c-0.4,1.9-0.7,3.9-0.8,5.9
			c0,0.7-0.5,1.2-1.2,1.3l-12.9,2.4c0.2,4.5,1,9,2.5,13.2l12.9-2.4c0.7-0.1,1.3,0.2,1.6,0.8c0.4,0.9,0.8,1.8,1.3,2.7
			c0.5,0.9,1,1.7,1.6,2.6c0.4,0.6,0.3,1.3-0.2,1.8l-9,9.5c2.8,3.5,6.1,6.6,9.8,9.2l9-9.5c0.5-0.5,1.2-0.6,1.8-0.3
			c1.7,1,3.6,1.9,5.4,2.6c0.6,0.2,1,0.9,0.9,1.5L433.7,835.2z M446.6,814.1c-9.5,0-18.2-5.2-22.7-13.5c-3.3-6.1-4.1-13.1-2.1-19.7
			c2-6.6,6.4-12.1,12.4-15.4c3.8-2.1,8.1-3.2,12.4-3.2c9.5,0,18.2,5.2,22.7,13.5c6.8,12.5,2.2,28.3-10.3,35.1
			C455.2,813,450.9,814.1,446.6,814.1z M446.6,765.2c-3.8,0-7.6,1-11,2.8c-5.4,2.9-9.3,7.8-11.1,13.7c-1.7,5.9-1.1,12.1,1.9,17.5
			c4,7.4,11.8,12,20.2,12c3.8,0,7.6-1,11-2.8c11.1-6.1,15.3-20.1,9.2-31.2C462.8,769.8,455,765.2,446.6,765.2z"/>
	</g>
	<g>
		<path fill="#FFFFFF" d="M412.9,434.6c-18.9,0-34.2,15.3-34.2,34.2V668c0,18.9,15.3,34.2,34.2,34.2h409.8c9.1,0,17.3-3.6,23.5-9.4
			c6.1,5.8,14.4,9.4,23.5,9.4h113.8c18.9,0,34.2-15.3,34.2-34.2V468.8c0-18.9-15.3-34.2-34.2-34.2H869.6c-9.1,0-17.3,3.6-23.5,9.4
			c-6.1-5.8-14.4-9.4-23.5-9.4H412.9z"/>
		<path d="M983.5,703.6H869.6c-8.7,0-17-3.1-23.5-8.9c-6.5,5.7-14.8,8.9-23.5,8.9H412.9c-19.6,0-35.6-16-35.6-35.6V468.8
			c0-19.6,16-35.6,35.6-35.6h409.8c8.7,0,17,3.1,23.5,8.9c6.5-5.7,14.8-8.9,23.5-8.9h113.8c19.6,0,35.6,16,35.6,35.6V668
			C1019,687.6,1003.1,703.6,983.5,703.6z M846.2,691.3c0.4,0,0.7,0.1,1,0.4c6.1,5.8,14.1,9,22.5,9h113.8c18,0,32.7-14.7,32.7-32.7
			V468.8c0-18-14.7-32.7-32.7-32.7H869.6c-8.4,0-16.4,3.2-22.5,9c-0.5,0.5-1.4,0.5-2,0c-6.1-5.8-14.1-9-22.5-9H412.9
			c-18,0-32.7,14.7-32.7,32.7V668c0,18,14.7,32.7,32.7,32.7h409.8c8.4,0,16.4-3.2,22.5-9C845.5,691.5,845.8,691.3,846.2,691.3z"/>
	</g>
	<g>
		<g>
			<path d="M846.2,694.2c-0.8,0-1.4-0.6-1.4-1.4v-8.5c0-0.8,0.6-1.4,1.4-1.4c0.8,0,1.4,0.6,1.4,1.4v8.5
				C847.6,693.6,846.9,694.2,846.2,694.2z"/>
		</g>
		<g>
			<path d="M846.2,667.8c-0.8,0-1.4-0.6-1.4-1.4v-17.8c0-0.8,0.6-1.4,1.4-1.4c0.8,0,1.4,0.6,1.4,1.4v17.8
				C847.6,667.2,846.9,667.8,846.2,667.8z M846.2,632.2c-0.8,0-1.4-0.6-1.4-1.4v-17.8c0-0.8,0.6-1.4,1.4-1.4c0.8,0,1.4,0.6,1.4,1.4
				v17.8C847.6,631.6,846.9,632.2,846.2,632.2z M846.2,596.6c-0.8,0-1.4-0.6-1.4-1.4v-17.8c0-0.8,0.6-1.4,1.4-1.4
				c0.8,0,1.4,0.6,1.4,1.4v17.8C847.6,595.9,846.9,596.6,846.2,596.6z M846.2,560.9c-0.8,0-1.4-0.6-1.4-1.4v-17.8
				c0-0.8,0.6-1.4,1.4-1.4c0.8,0,1.4,0.6,1.4,1.4v17.8C847.6,560.3,846.9,560.9,846.2,560.9z M846.2,525.3c-0.8,0-1.4-0.6-1.4-1.4
				V506c0-0.8,0.6-1.4,1.4-1.4c0.8,0,1.4,0.6,1.4,1.4v17.8C847.6,524.6,846.9,525.3,846.2,525.3z M846.2,489.6
				c-0.8,0-1.4-0.6-1.4-1.4v-17.8c0-0.8,0.6-1.4,1.4-1.4c0.8,0,1.4,0.6,1.4,1.4v17.8C847.6,489,846.9,489.6,846.2,489.6z"/>
		</g>
		<g>
			<path d="M846.2,454c-0.8,0-1.4-0.6-1.4-1.4V444c0-0.8,0.6-1.4,1.4-1.4c0.8,0,1.4,0.6,1.4,1.4v8.5
				C847.6,453.4,846.9,454,846.2,454z"/>
		</g>
	</g>
	<g>
		<path fill="#6EB6F9" d="M453.4,539.6l-28.6,28.6h-11.4c-6.2,0-11.2,5-11.2,11.2c0,6.2,5,11.2,11.2,11.2h11.4l28.6,28.6
			c3.2,3.2,8.4,3.2,11.5,0c3.2-3.2,3.2-8.4,0-11.5l-12-17.1h34.3c0.1,0,0.3,0,0.4,0l15.3,8.8v-39.8l-15.3,8.8c-0.1,0-0.3,0-0.4,0
			H453l12-17.1c3.2-3.2,3.2-8.4,0-11.5C461.7,536.4,456.5,536.4,453.4,539.6z"/>
		<path d="M459.1,623c-2.6,0-5-1-6.8-2.8L424.2,592h-10.8c-6.9,0-12.6-5.6-12.6-12.6c0-6.9,5.6-12.6,12.6-12.6h10.8l28.2-28.2
			c3.6-3.6,9.9-3.6,13.6,0c1.8,1.8,2.8,4.2,2.8,6.8c0,2.6-1,5-2.8,6.8l-10.2,14.6h31.6c0,0,0.1,0,0.1,0l14.9-8.6
			c0.4-0.3,1-0.3,1.4,0c0.4,0.3,0.7,0.7,0.7,1.2v39.8c0,0.5-0.3,1-0.7,1.2c-0.4,0.3-1,0.3-1.4,0l-14.9-8.6c0,0-0.1,0-0.1,0h-31.6
			l10.4,14.8c1.7,1.6,2.6,4,2.6,6.6c0,2.6-1,5-2.8,6.8C464.1,622,461.7,623,459.1,623z M413.4,569.6c-5.4,0-9.7,4.4-9.7,9.7
			c0,5.4,4.4,9.7,9.7,9.7h11.4c0.4,0,0.7,0.1,1,0.4l28.6,28.6c2.5,2.5,7,2.5,9.5,0c1.3-1.3,2-3,2-4.8c0-1.8-0.7-3.5-2-4.8
			l-12.1-17.3c-0.3-0.4-0.3-1-0.1-1.5c0.2-0.5,0.7-0.8,1.3-0.8l34.6,0c0.3,0,0.6,0,0.8,0.2l13.1,7.6v-34.9l-13.1,7.6
			c-0.2,0.1-0.5,0.2-0.8,0.2c0,0-0.3,0-0.3,0l-34.3,0c-0.5,0-1-0.3-1.3-0.8c-0.2-0.5-0.2-1,0.1-1.5l12-17.1c1.4-1.5,2.1-3.2,2.1-5
			s-0.7-3.5-2-4.8c-2.5-2.5-7-2.5-9.5,0l-28.6,28.6c-0.3,0.3-0.6,0.4-1,0.4H413.4z"/>
	</g>
	<g>
		<rect x="378.7" y="478.7" fill="#939598" width="447.3" height="32.3"/>
		<path d="M826,512.4H378.7c-0.8,0-1.4-0.6-1.4-1.4v-32.3c0-0.8,0.6-1.4,1.4-1.4H826c0.8,0,1.4,0.6,1.4,1.4V511
			C827.4,511.8,826.8,512.4,826,512.4z M380.1,509.6h444.4v-29.4H380.1V509.6z"/>
	</g>
	<g>
		<rect x="864.9" y="478.7" fill="#939598" width="152.7" height="32.3"/>
		<path d="M1017.6,512.4H864.9c-0.8,0-1.4-0.6-1.4-1.4v-32.3c0-0.8,0.6-1.4,1.4-1.4h152.7c0.8,0,1.4,0.6,1.4,1.4V511
			C1019,511.8,1018.4,512.4,1017.6,512.4z M866.3,509.6h149.9v-29.4H866.3V509.6z"/>
	</g>
	<g>
		<path d="M826,648.1H378.7c-0.8,0-1.4-0.6-1.4-1.4c0-0.8,0.6-1.4,1.4-1.4H826c0.8,0,1.4,0.6,1.4,1.4
			C827.4,647.4,826.8,648.1,826,648.1z"/>
	</g>
	<g>
		<path d="M1017.6,648.1H864.9c-0.8,0-1.4-0.6-1.4-1.4c0-0.8,0.6-1.4,1.4-1.4h152.7c0.8,0,1.4,0.6,1.4,1.4
			C1019,647.4,1018.4,648.1,1017.6,648.1z"/>
	</g>
	<g>
		<path d="M804.9,549.6H546.2c-0.8,0-1.4-0.6-1.4-1.4c0-0.8,0.6-1.4,1.4-1.4h258.7c0.8,0,1.4,0.6,1.4,1.4
			C806.3,549,805.7,549.6,804.9,549.6z"/>
	</g>
	<g>
		<path d="M804.9,580.8H546.2c-0.8,0-1.4-0.6-1.4-1.4c0-0.8,0.6-1.4,1.4-1.4h258.7c0.8,0,1.4,0.6,1.4,1.4
			C806.3,580.2,805.7,580.8,804.9,580.8z"/>
	</g>
	<g>
		<path d="M804.9,612H546.2c-0.8,0-1.4-0.6-1.4-1.4c0-0.8,0.6-1.4,1.4-1.4h258.7c0.8,0,1.4,0.6,1.4,1.4
			C806.3,611.3,805.7,612,804.9,612z"/>
	</g>
	<g>
		<path d="M982.5,549.6h-97.1c-0.8,0-1.4-0.6-1.4-1.4c0-0.8,0.6-1.4,1.4-1.4h97.1c0.8,0,1.4,0.6,1.4,1.4
			C984,549,983.3,549.6,982.5,549.6z"/>
	</g>
	<g>
		<path d="M982.5,580.8h-97.1c-0.8,0-1.4-0.6-1.4-1.4c0-0.8,0.6-1.4,1.4-1.4h97.1c0.8,0,1.4,0.6,1.4,1.4
			C984,580.2,983.3,580.8,982.5,580.8z"/>
	</g>
	<g>
		<path d="M982.5,612h-97.1c-0.8,0-1.4-0.6-1.4-1.4c0-0.8,0.6-1.4,1.4-1.4h97.1c0.8,0,1.4,0.6,1.4,1.4
			C984,611.3,983.3,612,982.5,612z"/>
	</g>
	<g>
		<g>
			<path fill="#FFFFFF" d="M919.9,521.3c0,4.7-3.8,8.5-8.5,8.5h-295c-4.7,0-8.5-3.8-8.5-8.5v-409c0-4.7,3.8-8.5,8.5-8.5h295
				c4.7,0,8.5,3.8,8.5,8.5V521.3z"/>
		</g>
		<g>
			<path fill="#4D824B" d="M919.9,521.3c0,4.7-3.8,8.5-8.5,8.5h-295c-4.7,0-8.5-3.8-8.5-8.5v-409c0-4.7,3.8-8.5,8.5-8.5h295
				c4.7,0,8.5,3.8,8.5,8.5V521.3z"/>
			<path d="M911.4,531.3h-295c-5.5,0-10-4.5-10-10v-409c0-5.5,4.5-10,10-10h295c5.5,0,10,4.5,10,10v409
				C921.3,526.8,916.9,531.3,911.4,531.3z M616.4,105.2c-3.9,0-7.1,3.2-7.1,7.1v409c0,3.9,3.2,7.1,7.1,7.1h295
				c3.9,0,7.1-3.2,7.1-7.1v-409c0-3.9-3.2-7.1-7.1-7.1H616.4z"/>
		</g>
	</g>
	<g>
		<g>
			<path fill="#FFF6BB" d="M867.7,255.2h-49.4c-0.8,0-1.4-0.6-1.4-1.4c0-20.4-4.8-39.8-14.1-57.8c-0.2-0.4-0.2-0.8-0.1-1.2
				c0.2-0.4,0.5-0.7,0.9-0.8c11.3-3.8,22-9.1,31.8-15.9c0.6-0.4,1.3-0.3,1.8,0.1c20.6,20,32,46.9,32,75.6
				C869.1,254.6,868.5,255.2,867.7,255.2z M819.7,252.4h46.6c-0.4-27-11.1-52.2-30.3-71.3c-9.3,6.3-19.3,11.4-29.9,15.1
				C814.9,213.7,819.5,232.6,819.7,252.4z"/>
		</g>
		<g>
			<path fill="#FFF6BB" d="M836.1,329.8c-0.3,0-0.6-0.1-0.8-0.3c-9.8-6.8-20.5-12.1-31.8-15.9c-0.4-0.1-0.7-0.4-0.9-0.8
				c-0.2-0.4-0.1-0.8,0.1-1.2c9.4-18,14.1-37.4,14.1-57.8c0-0.8,0.6-1.4,1.4-1.4h49.4c0.8,0,1.4,0.6,1.4,1.4
				c0,28.7-11.4,55.5-32,75.6C836.8,329.6,836.5,329.8,836.1,329.8z M806,311.4c10.6,3.7,20.7,8.8,29.9,15.1
				c19.2-19,30-44.3,30.3-71.3h-46.6C819.5,275,814.9,293.9,806,311.4z"/>
		</g>
		<g>
			<path fill="#FFF6BB" d="M804,196.8c-0.5,0-1-0.3-1.3-0.8c-9.3-17.8-22.9-33.3-39.4-44.9c-0.5-0.4-0.7-1-0.5-1.6
				c0.2-0.6,0.7-1,1.4-1c0,0,0,0,0,0c27.4,0.1,53.3,10.6,72.9,29.7c0.3,0.3,0.5,0.7,0.4,1.1c0,0.4-0.3,0.8-0.6,1.1
				c-10,7-20.9,12.4-32.5,16.3C804.3,196.8,804.1,196.8,804,196.8z M768.7,151.5c14.9,11.2,27.2,25.7,36,42.1
				c10.3-3.6,20.1-8.4,29.2-14.6C816,162.3,793,152.7,768.7,151.5z"/>
		</g>
		<g>
			<path fill="#FFF6BB" d="M691.6,329.8c-0.4,0-0.7-0.1-1-0.4c-20.7-20-32-46.8-32-75.6c0-0.8,0.6-1.4,1.4-1.4h49.4
				c0.8,0,1.4,0.6,1.4,1.4c0,20.3,4.8,39.8,14.1,57.8c0.2,0.4,0.2,0.8,0.1,1.2c-0.2,0.4-0.5,0.7-0.9,0.8c-11.3,3.8-22,9.1-31.8,15.9
				C692.2,329.7,691.9,329.8,691.6,329.8z M661.5,255.2c0.4,27,11.1,52.2,30.3,71.3c9.3-6.3,19.3-11.4,29.9-15.1
				c-8.9-17.6-13.5-36.5-13.7-56.2H661.5z"/>
		</g>
		<g>
			<path fill="#FFF6BB" d="M709.5,255.2H660c-0.8,0-1.4-0.6-1.4-1.4c0-28.7,11.4-55.5,32-75.6c0.5-0.5,1.2-0.5,1.8-0.1
				c9.8,6.8,20.5,12.2,31.8,15.9c0.4,0.1,0.7,0.4,0.9,0.8c0.2,0.4,0.1,0.8-0.1,1.2c-9.4,18-14.1,37.4-14.1,57.8
				C710.9,254.6,710.2,255.2,709.5,255.2z M661.5,252.4H708c0.2-19.7,4.8-38.6,13.7-56.2c-10.6-3.7-20.7-8.8-29.9-15.1
				C672.6,200.2,661.8,225.4,661.5,252.4z"/>
		</g>
		<g>
			<path fill="#FFF6BB" d="M723.8,313.7c-0.5,0-1-0.3-1.3-0.8c-9.6-18.4-14.4-38.3-14.4-59.1c0-0.8,0.6-1.4,1.4-1.4h54.4
				c0.8,0,1.4,0.6,1.4,1.4v51.9c0,0.8-0.6,1.4-1.4,1.4c-13.5,0-26.8,2.2-39.7,6.4C724.1,313.6,723.9,313.7,723.8,313.7z
				 M710.9,255.2c0.2,19.4,4.8,38,13.6,55.3c12.3-4,25.1-6.1,38-6.2v-49.1H710.9z"/>
		</g>
		<g>
			<path fill="#FFF6BB" d="M763.9,255.2h-54.4c-0.8,0-1.4-0.6-1.4-1.4c0-20.8,4.9-40.7,14.4-59.1c0.3-0.6,1.1-0.9,1.7-0.7
				c12.8,4.3,26.2,6.4,39.7,6.4c0.8,0,1.4,0.6,1.4,1.4v51.9C765.3,254.6,764.6,255.2,763.9,255.2z M710.9,252.4h51.5v-49.1
				c-12.9-0.1-25.7-2.2-38-6.2C715.7,214.4,711.1,233,710.9,252.4z"/>
		</g>
		<g>
			<path fill="#FFF6BB" d="M818.3,255.2h-54.4c-0.8,0-1.4-0.6-1.4-1.4v-51.9c0-0.8,0.6-1.4,1.4-1.4c13.5,0,26.8-2.2,39.7-6.4
				c0.7-0.2,1.4,0.1,1.7,0.7c9.6,18.4,14.4,38.3,14.4,59.1C819.7,254.6,819.1,255.2,818.3,255.2z M765.3,252.4h51.6
				c-0.2-19.4-4.8-38-13.6-55.3c-12.3,4-25.1,6.1-38,6.2V252.4z"/>
		</g>
		<g>
			<path fill="#FFF6BB" d="M804,313.7c-0.1,0-0.3,0-0.5-0.1c-12.8-4.3-26.2-6.4-39.7-6.4c-0.8,0-1.4-0.6-1.4-1.4v-51.9
				c0-0.8,0.6-1.4,1.4-1.4h54.4c0.8,0,1.4,0.6,1.4,1.4c0,20.8-4.9,40.7-14.4,59.1C805,313.4,804.5,313.7,804,313.7z M765.3,304.3
				c12.9,0.1,25.7,2.2,38,6.2c8.8-17.3,13.4-35.8,13.6-55.3h-51.6V304.3z"/>
		</g>
		<g>
			<path fill="#FFF6BB" d="M723.8,196.8c-0.1,0-0.3,0-0.5-0.1c-11.5-3.9-22.5-9.3-32.5-16.3c-0.3-0.2-0.6-0.6-0.6-1.1
				c0-0.4,0.1-0.8,0.4-1.1c19.7-19.1,45.6-29.6,72.9-29.7c0,0,0,0,0,0c0.6,0,1.2,0.4,1.4,1c0.2,0.6,0,1.2-0.5,1.6
				c-16.5,11.6-30.1,27.1-39.4,44.9C724.8,196.5,724.3,196.8,723.8,196.8z M693.9,179.1c9.1,6.1,18.9,11,29.2,14.6
				c8.8-16.4,21.1-30.9,36-42.1C734.7,152.7,711.8,162.3,693.9,179.1z"/>
		</g>
		<g>
			<path fill="#FFF6BB" d="M764.2,151.4c0,0-0.2,0-0.2,0l-0.2-0.9l-0.2,0.2l-0.1,0.7c-0.6,0-1.2-0.4-1.3-1s0-1.2,0.5-1.6
				c0,0,0.3-0.2,0.3-0.2c0.5-0.4,1.2-0.4,1.7,0l0.3,0.2c0.5,0.4,0.7,1,0.5,1.6S764.8,151.4,764.2,151.4z"/>
		</g>
		<g>
			<path fill="#FFF6BB" d="M763.9,203.3c-13.8,0-27.4-2.2-40.6-6.6c-0.4-0.1-0.7-0.4-0.9-0.8c-0.2-0.4-0.1-0.8,0.1-1.2
				c9.5-18.2,23.4-34.1,40.3-45.9c0.9-0.6,2.5,0.1,2.5,1.2v51.9C765.3,202.7,764.6,203.3,763.9,203.3z M725.8,194.5
				c11.9,3.8,24.2,5.8,36.6,5.9v-47.9C747.3,163.6,734.7,178.1,725.8,194.5z"/>
		</g>
		<g>
			<path fill="#FFF6BB" d="M763.9,203.3c-0.8,0-1.4-0.6-1.4-1.4V150c0-0.8,0.6-1.4,1.4-1.4c0.3,0,0.9,0.1,1.1,0.3
				c16.9,11.8,30.8,27.7,40.3,45.9c0.2,0.4,0.2,0.8,0.1,1.2c-0.2,0.4-0.5,0.7-0.9,0.8C791.3,201.1,777.7,203.3,763.9,203.3z
				 M765.3,152.5v47.9c12.5-0.1,24.8-2.1,36.6-5.9C793.1,178.1,780.4,163.6,765.3,152.5z"/>
		</g>
		<g>
			<path fill="#FFF6BB" d="M764.2,359c-0.6,0-1.2-0.4-1.4-1c-0.2-0.6,0-1.2,0.5-1.6c16.5-11.5,30.1-27.1,39.4-44.9
				c0.3-0.6,1.1-0.9,1.7-0.7c11.6,3.9,22.5,9.3,32.5,16.3c0.3,0.2,0.6,0.6,0.6,1.1c0,0.4-0.1,0.8-0.4,1.1
				C817.4,348.4,791.5,359,764.2,359C764.2,359,764.2,359,764.2,359z M804.7,314c-8.8,16.4-21.1,30.9-36,42.1
				c24.4-1.1,47.3-10.8,65.2-27.6C824.8,322.4,815,317.5,804.7,314z"/>
		</g>
		<g>
			<path fill="#FFF6BB" d="M763.6,359C763.6,359,763.6,359,763.6,359c-27.4-0.1-53.3-10.6-72.9-29.7c-0.3-0.3-0.5-0.7-0.4-1.1
				c0-0.4,0.3-0.8,0.6-1.1c10-6.9,20.9-12.4,32.5-16.3c0.7-0.2,1.4,0.1,1.7,0.7c9.3,17.8,22.9,33.3,39.4,44.9c0.5,0.4,0.7,1,0.5,1.6
				C764.7,358.6,764.2,359,763.6,359z M693.9,328.5c17.9,16.8,40.8,26.4,65.2,27.6c-14.9-11.2-27.2-25.7-36-42.1
				C712.7,317.5,702.9,322.4,693.9,328.5z"/>
		</g>
		<g>
			<path fill="#FFF6BB" d="M763.9,359.2c-0.3,0-0.6-0.1-0.8-0.2c0,0-0.2-0.1-0.2-0.1c-0.5-0.4-0.8-1.1-0.6-1.6c0.2-0.6,0.7-1,1.3-1
				l0.3,0l0.3,0c0.6,0,1.2,0.4,1.4,1c0.2,0.6,0,1.2-0.6,1.6c0,0-0.3,0.2-0.3,0.2C764.4,359.2,764.1,359.2,763.9,359.2z"/>
		</g>
		<g>
			<path fill="#FFF6BB" d="M763.9,359c0,0-0.2,0-0.2,0c-0.3,0-0.7-0.1-0.9-0.3c-16.9-11.8-30.8-27.7-40.3-45.9
				c-0.2-0.4-0.2-0.8-0.1-1.2c0.2-0.4,0.5-0.7,0.9-0.8c13.1-4.4,26.8-6.6,40.6-6.6c0.8,0,1.4,0.6,1.4,1.4v51.9
				C765.3,358.4,764.6,359,763.9,359z M725.8,313.1c8.9,16.5,21.5,30.9,36.6,42v-47.9C750,307.3,737.7,309.3,725.8,313.1z"/>
		</g>
		<g>
			<path fill="#FFF6BB" d="M764.2,359c-0.8,0-1.7-0.6-1.7-1.4v-51.9c0-0.8,0.6-1.4,1.4-1.4c13.8,0,27.4,2.2,40.6,6.6
				c0.4,0.1,0.7,0.4,0.9,0.8c0.2,0.4,0.1,0.8-0.1,1.2c-9.5,18.2-23.4,34.1-40.3,45.9C764.7,359,764.4,359,764.2,359z M765.3,307.1
				v47.9c15.2-11.1,27.8-25.5,36.6-42C790,309.3,777.7,307.3,765.3,307.1z"/>
		</g>
	</g>
	<g>
		<g>
			<g>
				<path fill="#FFF6BB" d="M639.3,460v-39.7h11c9.6,0,14.4,3.6,14.4,10.7c0,3.2-1,5.9-3,8c-1.4,1.3-3.2,2.3-5.5,2.7
					c-1.3,0.3-3.3,0.4-6.1,0.4h-8.2V460H639.3z M641.9,439.7h7c4.4,0,7.4-0.3,8.9-1c2.8-1.2,4.2-3.8,4.2-7.8c0-4.4-2.3-7-6.8-7.8
					c-1.3-0.2-3.3-0.3-6.2-0.3h-7.1V439.7z"/>
			</g>
		</g>
		<g>
			<g>
				<path fill="#FFF6BB" d="M691.8,460l-5-13.2h-17.5l-5.1,13.2h-2.6l15.3-39.7h2.6l15.1,39.7H691.8z M670.2,444.4h15.6l-7.7-20.4
					L670.2,444.4z"/>
			</g>
		</g>
		<g>
			<g>
				<path fill="#FFF6BB" d="M709.1,460.8c-4,0-7.3-1.2-9.6-3.5c-2.4-2.3-3.8-5.5-4-9.5l0-0.4h2.6l0,0.4c0.2,3.3,1.3,5.9,3.2,7.8
					c1.9,1.9,4.5,2.9,7.9,2.9c2.9,0,5.4-0.7,7.3-2.2c2.2-1.6,3.3-3.7,3.3-6.5c0-2.9-1.1-5-3.4-6.4c-1.2-0.8-3.7-1.7-7.7-2.8
					l-0.6-0.2c-4.7-1.3-7.5-2.5-8.8-3.6c-1.9-1.7-2.9-4-2.9-6.7c0-3.4,1.2-6.1,3.6-7.9c2.2-1.7,5-2.6,8.5-2.6c3.7,0,6.8,1,9,3.1
					c2.3,2,3.6,5,3.8,8.7l0,0.4h-2.5l0-0.4c-0.1-3-1.1-5.4-3.1-7.1c-1.9-1.6-4.4-2.4-7.4-2.4c-2.8,0-5,0.7-6.7,2.1
					c-1.8,1.4-2.7,3.5-2.7,6.2c0,1.9,0.7,3.5,2.3,4.9c1.1,1,3.7,2.1,7.5,3c0.4,0.1,0.6,0.1,0.8,0.2c4.1,1.1,7,2.2,8.6,3.2
					c2.9,1.8,4.3,4.5,4.3,7.9c0,3.7-1.3,6.7-4,8.7C716,459.9,712.9,460.8,709.1,460.8z"/>
			</g>
		</g>
		<g>
			<g>
				<path fill="#FFF6BB" d="M741.1,460.8c-4,0-7.3-1.2-9.6-3.5c-2.4-2.3-3.8-5.5-4-9.5l0-0.4h2.6l0,0.4c0.2,3.3,1.3,5.9,3.2,7.8
					c1.9,1.9,4.5,2.9,7.9,2.9c2.9,0,5.4-0.7,7.3-2.2c2.2-1.6,3.3-3.7,3.3-6.5c0-2.9-1.1-5-3.4-6.4c-1.2-0.8-3.7-1.7-7.7-2.8
					l-0.6-0.2c-4.6-1.3-7.5-2.5-8.7-3.6c-1.9-1.7-2.9-4-2.9-6.7c0-3.4,1.2-6.1,3.6-7.9c2.2-1.7,5-2.6,8.5-2.6c3.7,0,6.8,1,9,3.1
					c2.3,2,3.6,5,3.8,8.7l0,0.4h-2.5l0-0.4c-0.1-3-1.1-5.4-3.1-7.1c-1.9-1.6-4.4-2.4-7.4-2.4c-2.8,0-5,0.7-6.7,2.1
					c-1.8,1.4-2.7,3.5-2.7,6.2c0,1.9,0.7,3.5,2.3,4.9c1.1,1,3.7,2.1,7.5,3c0.4,0.1,0.6,0.1,0.8,0.2c4.1,1.1,7,2.2,8.6,3.2
					c2.8,1.8,4.3,4.5,4.3,7.9c0,3.7-1.3,6.7-4,8.7C748,459.9,744.9,460.8,741.1,460.8z"/>
			</g>
		</g>
		<g>
			<g>
				<path fill="#FFF6BB" d="M760.4,460v-39.7h11c9.6,0,14.4,3.6,14.4,10.7c0,3.2-1,5.9-3,8c-1.4,1.3-3.2,2.3-5.5,2.7
					c-1.3,0.3-3.3,0.4-6.1,0.4h-8.2V460H760.4z M763.1,439.7h7c4.4,0,7.4-0.3,8.9-1c2.8-1.2,4.2-3.8,4.2-7.8c0-4.4-2.3-7-6.8-7.8
					c-1.3-0.2-3.3-0.3-6.2-0.3h-7.1V439.7z"/>
			</g>
		</g>
		<g>
			<g>
				<path fill="#FFF6BB" d="M807.4,460.8c-5.9,0-10.4-2.1-13.4-6.1c-2.7-3.6-4.1-8.5-4.1-14.5c0-5.9,1.4-10.8,4.1-14.5
					c3.1-4.1,7.6-6.2,13.5-6.2c5.9,0,10.4,2.1,13.5,6.2c2.7,3.7,4.1,8.6,4.1,14.6c0,6-1.4,10.9-4.1,14.5
					C817.9,458.8,813.3,460.8,807.4,460.8z M807.4,421.9c-5.1,0-8.8,1.8-11.5,5.5c-2.3,3.2-3.4,7.5-3.4,12.8c0,5.3,1.2,9.6,3.4,12.8
					c2.6,3.7,6.4,5.5,11.5,5.5c5.1,0,8.9-1.8,11.5-5.5c2.3-3.2,3.4-7.5,3.4-12.8c0-5.3-1.2-9.6-3.5-12.8
					C816.3,423.7,812.5,421.9,807.4,421.9z"/>
			</g>
		</g>
		<g>
			<g>
				<path fill="#FFF6BB" d="M854.2,460v-9.1c0-1,0-1.9,0-2.5c0-0.6,0-1.1-0.1-1.3c-0.4-2.3-1.3-3.7-2.8-4.5
					c-1.2-0.6-3.1-0.9-5.8-0.9h-11.3V460h-2.6v-39.7h13.3c4.4,0,7.6,0.6,9.7,1.9c2.7,1.7,4,4.6,4,8.7c0,4.3-1.8,7.4-5.2,9.1
					l-0.8,0.4l0.7,0.4c2.1,1.1,3.4,3.2,3.7,6.3c0,0.1,0.1,0.8,0.1,5.1l0.1,7.8H854.2z M834.2,439.2h11.6c6.7,0,10.1-2.7,10.1-8.1
					c0-4.5-2.1-7.2-6.2-8c-0.5-0.1-1.1-0.1-1.9-0.2c-0.8-0.1-1.8-0.1-2.9-0.1h-10.7V439.2z"/>
			</g>
		</g>
		<g>
			<g>
				<polygon fill="#FFF6BB" points="873.7,460 873.7,422.9 861.6,422.9 861.6,420.4 888.4,420.4 888.4,422.9 876.3,422.9 876.3,460 
									"/>
			</g>
		</g>
	</g>
	<g>
		<line fill="#FFFFFF" x1="660.9" y1="400.2" x2="866.8" y2="400.2"/>
		<path d="M866.8,401.6H660.9c-0.8,0-1.4-0.6-1.4-1.4c0-0.8,0.6-1.4,1.4-1.4h205.9c0.8,0,1.4,0.6,1.4,1.4
			C868.2,401,867.6,401.6,866.8,401.6z"/>
	</g>
	<g>
		<line fill="#FFFFFF" x1="660.9" y1="480.2" x2="866.8" y2="480.2"/>
		<path d="M866.8,481.6H660.9c-0.8,0-1.4-0.6-1.4-1.4s0.6-1.4,1.4-1.4h205.9c0.8,0,1.4,0.6,1.4,1.4S867.6,481.6,866.8,481.6z"/>
	</g>
	<g>
		<g>
			<g>
				<path d="M162.6,792.9h-25.8c-0.8,0-1.4-0.6-1.4-1.4V612.9c0-0.8,0.6-1.4,1.4-1.4h25.8c0.8,0,1.4,0.6,1.4,1.4v178.5
					C164,792.2,163.4,792.9,162.6,792.9z M138.3,790h22.9V614.3h-22.9V790z"/>
			</g>
			<g>
				<rect x="162.6" y="612.9" fill="#6EB6F9" width="117.8" height="178.5"/>
				<path d="M280.4,792.9H162.6c-0.8,0-1.4-0.6-1.4-1.4V612.9c0-0.8,0.6-1.4,1.4-1.4h117.8c0.8,0,1.4,0.6,1.4,1.4v178.5
					C281.8,792.2,281.2,792.9,280.4,792.9z M164,790h115V614.3H164V790z"/>
			</g>
			<g>
				<path fill="#6EB6F9" d="M117.5,612.9c-12.2,0-22.1,9.9-22.1,22.1v134.4c0,12.2,9.9,22.1,22.1,22.1h19.3V612.9H117.5z"/>
				<path d="M136.8,792.9h-19.3c-13,0-23.5-10.5-23.5-23.5V635c0-13,10.5-23.5,23.5-23.5h19.3c0.8,0,1.4,0.6,1.4,1.4v178.5
					C138.3,792.2,137.6,792.9,136.8,792.9z M117.5,614.3c-11.4,0-20.7,9.3-20.7,20.7v134.4c0,11.4,9.3,20.7,20.7,20.7h17.9V614.3
					H117.5z"/>
			</g>
			<g>
				<path d="M306.2,792.9h-25.8c-0.8,0-1.4-0.6-1.4-1.4V612.9c0-0.8,0.6-1.4,1.4-1.4h25.8c0.8,0,1.4,0.6,1.4,1.4v178.5
					C307.6,792.2,307,792.9,306.2,792.9z M281.8,790h22.9V614.3h-22.9V790z"/>
			</g>
			<g>
				<path fill="#6EB6F9" d="M324.6,612.9h-18.4v178.5h18.4c12.2,0,22.1-9.9,22.1-22.1V635C346.7,622.8,336.8,612.9,324.6,612.9z"/>
				<path d="M324.6,792.9h-18.4c-0.8,0-1.4-0.6-1.4-1.4V612.9c0-0.8,0.6-1.4,1.4-1.4h18.4c13,0,23.5,10.5,23.5,23.5v134.4
					C348.1,782.3,337.5,792.9,324.6,792.9z M307.6,790h17c11.4,0,20.7-9.3,20.7-20.7V635c0-11.4-9.3-20.7-20.7-20.7h-17V790z"/>
			</g>
		</g>
		<g>
			<path fill="#939598" d="M169.4,609.1c0-2.1-1.7-3.8-3.8-3.8h-31.6c-2.1,0-3.8,1.7-3.8,3.8l0,0c0,2.1,1.7,3.8,3.8,3.8h31.6
				C167.6,612.9,169.4,611.2,169.4,609.1L169.4,609.1z"/>
			<path d="M165.5,614.3h-31.6c-2.9,0-5.3-2.4-5.3-5.3c0-2.9,2.4-5.3,5.3-5.3h31.6c2.9,0,5.3,2.4,5.3,5.3
				C170.8,612,168.4,614.3,165.5,614.3z M133.9,606.7c-1.3,0-2.4,1.1-2.4,2.4c0,1.3,1.1,2.4,2.4,2.4h31.6c1.3,0,2.4-1.1,2.4-2.4
				c0-1.3-1.1-2.4-2.4-2.4H133.9z"/>
		</g>
		<g>
			<path fill="#939598" d="M312.9,609.1c0-2.1-1.7-3.8-3.8-3.8h-31.6c-2.1,0-3.8,1.7-3.8,3.8l0,0c0,2.1,1.7,3.8,3.8,3.8h31.6
				C311.2,612.9,312.9,611.2,312.9,609.1L312.9,609.1z"/>
			<path d="M309.1,614.3h-31.6c-2.9,0-5.3-2.4-5.3-5.3c0-2.9,2.4-5.3,5.3-5.3h31.6c2.9,0,5.3,2.4,5.3,5.3
				C314.3,612,312,614.3,309.1,614.3z M277.5,606.7c-1.3,0-2.4,1.1-2.4,2.4c0,1.3,1.1,2.4,2.4,2.4h31.6c1.3,0,2.4-1.1,2.4-2.4
				c0-1.3-1.1-2.4-2.4-2.4H277.5z"/>
		</g>
		<g>
			<path fill="#FFFFFF" d="M243.3,570.3h-43.5c-11.6,0-21,9.4-21,21v21.6h9.2v-21.6c0-6.5,5.3-11.8,11.8-11.8h43.5
				c6.5,0,11.8,5.3,11.8,11.8v21.6h9.2v-21.6C264.3,579.7,254.9,570.3,243.3,570.3z"/>
			<path d="M264.3,614.3h-9.2c-0.8,0-1.4-0.6-1.4-1.4v-21.6c0-5.7-4.7-10.4-10.4-10.4h-43.5c-5.7,0-10.4,4.7-10.4,10.4v21.6
				c0,0.8-0.6,1.4-1.4,1.4h-9.2c-0.8,0-1.4-0.6-1.4-1.4v-21.6c0-12.4,10.1-22.5,22.4-22.5h43.5c12.4,0,22.4,10.1,22.4,22.5v21.6
				C265.7,613.7,265.1,614.3,264.3,614.3z M256.5,611.5h6.4v-20.2c0-10.8-8.8-19.6-19.6-19.6h-43.5c-10.8,0-19.6,8.8-19.6,19.6v20.2
				h6.4v-20.2c0-7.3,5.9-13.2,13.2-13.2h43.5c7.3,0,13.2,5.9,13.2,13.2V611.5z"/>
		</g>
	</g>
	<g>
		<g>
			<g>
				<rect x="1013.7" y="171.1" fill="#FFD275" width="31.4" height="217.4"/>
				<path d="M1045,389.9h-31.4c-0.8,0-1.4-0.6-1.4-1.4V171.1c0-0.8,0.6-1.4,1.4-1.4h31.4c0.8,0,1.4,0.6,1.4,1.4v217.4
					C1046.5,389.3,1045.8,389.9,1045,389.9z M1015.1,387h28.5V172.5h-28.5V387z"/>
			</g>
			<g>
				<rect x="1045" y="171.1" fill="#BB8A70" width="143.4" height="217.4"/>
				<path d="M1188.5,389.9H1045c-0.8,0-1.4-0.6-1.4-1.4V171.1c0-0.8,0.6-1.4,1.4-1.4h143.4c0.8,0,1.4,0.6,1.4,1.4v217.4
					C1189.9,389.3,1189.3,389.9,1188.5,389.9z M1046.5,387h140.6V172.5h-140.6V387z"/>
			</g>
			<g>
				<path fill="#BB8A70" d="M990.1,171.1c-14.9,0-26.9,12-26.9,26.9v163.6c0,14.9,12,26.9,26.9,26.9h23.5V171.1H990.1z"/>
				<path d="M1013.7,389.9h-23.5c-15.6,0-28.3-12.7-28.3-28.3V198c0-15.6,12.7-28.3,28.3-28.3h23.5c0.8,0,1.4,0.6,1.4,1.4v217.4
					C1015.1,389.3,1014.5,389.9,1013.7,389.9z M990.1,172.5c-14,0-25.5,11.4-25.5,25.5v163.6c0,14,11.4,25.5,25.5,25.5h22.1V172.5
					H990.1z"/>
			</g>
			<g>
				<rect x="1188.5" y="171.1" fill="#FFD275" width="31.4" height="217.4"/>
				<path d="M1219.9,389.9h-31.4c-0.8,0-1.4-0.6-1.4-1.4V171.1c0-0.8,0.6-1.4,1.4-1.4h31.4c0.8,0,1.4,0.6,1.4,1.4v217.4
					C1221.3,389.3,1220.6,389.9,1219.9,389.9z M1189.9,387h28.5V172.5h-28.5V387z"/>
			</g>
			<g>
				<path fill="#BB8A70" d="M1242.3,171.1h-22.4v217.4h22.4c14.9,0,26.9-12,26.9-26.9V198C1269.2,183.1,1257.1,171.1,1242.3,171.1z"
					/>
				<path d="M1242.3,389.9h-22.4c-0.8,0-1.4-0.6-1.4-1.4V171.1c0-0.8,0.6-1.4,1.4-1.4h22.4c15.6,0,28.3,12.7,28.3,28.3v163.6
					C1270.6,377.2,1257.9,389.9,1242.3,389.9z M1221.3,387h21c14,0,25.5-11.4,25.5-25.5V198c0-14-11.4-25.5-25.5-25.5h-21V387z"/>
			</g>
		</g>
		<g>
			<path fill="#939598" d="M1053.3,166.4c0-2.6-2.1-4.7-4.7-4.7h-38.5c-2.6,0-4.7,2.1-4.7,4.7l0,0c0,2.6,2.1,4.7,4.7,4.7h38.5
				C1051.2,171.1,1053.3,169,1053.3,166.4L1053.3,166.4z"/>
			<path d="M1048.6,172.5h-38.5c-3.4,0-6.1-2.7-6.1-6.1c0-3.4,2.7-6.1,6.1-6.1h38.5c3.4,0,6.1,2.7,6.1,6.1
				C1054.7,169.8,1052,172.5,1048.6,172.5z M1010.1,163.2c-1.8,0-3.2,1.5-3.2,3.2c0,1.8,1.5,3.2,3.2,3.2h38.5c1.8,0,3.2-1.5,3.2-3.2
				c0-1.8-1.5-3.2-3.2-3.2H1010.1z"/>
		</g>
		<g>
			<path fill="#939598" d="M1228.1,166.4c0-2.6-2.1-4.7-4.7-4.7h-38.5c-2.6,0-4.7,2.1-4.7,4.7l0,0c0,2.6,2.1,4.7,4.7,4.7h38.5
				C1226,171.1,1228.1,169,1228.1,166.4L1228.1,166.4z"/>
			<path d="M1223.4,172.5h-38.5c-3.4,0-6.1-2.7-6.1-6.1c0-3.4,2.7-6.1,6.1-6.1h38.5c3.4,0,6.1,2.7,6.1,6.1
				C1229.5,169.8,1226.8,172.5,1223.4,172.5z M1184.9,163.2c-1.8,0-3.2,1.5-3.2,3.2c0,1.8,1.5,3.2,3.2,3.2h38.5
				c1.8,0,3.2-1.5,3.2-3.2c0-1.8-1.5-3.2-3.2-3.2H1184.9z"/>
		</g>
		<g>
			<path fill="#939598" d="M1143.3,119.1h-53c-14.1,0-25.6,11.5-25.6,25.6v26.3h11.2v-26.3c0-7.9,6.5-14.4,14.4-14.4h53
				c7.9,0,14.4,6.5,14.4,14.4v26.3h11.2v-26.3C1168.9,130.6,1157.4,119.1,1143.3,119.1z"/>
			<path d="M1168.9,172.5h-11.2c-0.8,0-1.4-0.6-1.4-1.4v-26.3c0-7.2-5.8-13-13-13h-53c-7.2,0-13,5.8-13,13v26.3
				c0,0.8-0.6,1.4-1.4,1.4h-11.2c-0.8,0-1.4-0.6-1.4-1.4v-26.3c0-14.9,12.1-27,27-27h53c14.9,0,27,12.1,27,27v26.3
				C1170.3,171.9,1169.7,172.5,1168.9,172.5z M1159.1,169.6h8.4v-24.9c0-13.3-10.8-24.2-24.2-24.2h-53c-13.3,0-24.2,10.8-24.2,24.2
				v24.9h8.4v-24.9c0-8.7,7.1-15.8,15.8-15.8h53c8.7,0,15.8,7.1,15.8,15.8V169.6z"/>
		</g>
	</g>
	<g>
		<g>
			<g>
				<path fill="#231F20" d="M255.8,526.8c-0.8,0-1.4-0.6-1.4-1.4v-85.9c0-0.6,0.4-1.1,0.9-1.3c15.4-5.8,25.7-20.6,25.7-37v-44.4
					c0-21.8-17.7-39.6-39.6-39.6h-41.2c-21.8,0-39.6,17.7-39.6,39.6v44.4c0,16.4,10.3,31.2,25.7,37c0.6,0.2,0.9,0.7,0.9,1.3v85.9
					c0,0.8-0.6,1.4-1.4,1.4c-0.8,0-1.4-0.6-1.4-1.4v-84.9c-16-6.4-26.6-22.1-26.6-39.3v-44.4c0-23.4,19-42.4,42.4-42.4h41.2
					c23.4,0,42.4,19,42.4,42.4v44.4c0,17.2-10.6,32.9-26.6,39.3v84.9C257.3,526.1,256.6,526.8,255.8,526.8z"/>
			</g>
			<g>
				<path fill="#231F20" d="M185.8,440.9c-0.8,0-1.4-0.6-1.4-1.4v-71.6c0-0.8,0.6-1.4,1.4-1.4c0.8,0,1.4,0.6,1.4,1.4v71.6
					C187.3,440.2,186.6,440.9,185.8,440.9z"/>
			</g>
			<g>
				<path fill="#231F20" d="M255.8,440.9c-0.8,0-1.4-0.6-1.4-1.4v-71.6c0-0.8,0.6-1.4,1.4-1.4s1.4,0.6,1.4,1.4v71.6
					C257.3,440.2,256.6,440.9,255.8,440.9z"/>
			</g>
			<g>
				<path fill="#231F20" d="M220.8,526.8c-0.8,0-1.4-0.6-1.4-1.4v-85.9c0-0.8,0.6-1.4,1.4-1.4c0.8,0,1.4,0.6,1.4,1.4v85.9
					C222.3,526.1,221.6,526.8,220.8,526.8z"/>
			</g>
			<g>
				<path fill="#231F20" d="M220.8,309.2c-15,0-27.3-12.2-27.3-27.3v-9.8c0-15,12.2-27.2,27.3-27.2s27.3,12.2,27.3,27.2v9.8
					C248.1,296.9,235.9,309.2,220.8,309.2z M220.8,247.7c-13.5,0-24.4,10.9-24.4,24.4v9.8c0,13.5,10.9,24.4,24.4,24.4
					s24.4-10.9,24.4-24.4v-9.8C245.2,258.6,234.3,247.7,220.8,247.7z"/>
			</g>
		</g>
		<g>
			<path fill="#E6E7E8" d="M352.1,173.5c0,10.9-8.9,19.8-19.8,19.8h-223c-10.9,0-19.8-8.9-19.8-19.8l0,0c0-10.9,8.9-19.8,19.8-19.8
				h223C343.2,153.7,352.1,162.6,352.1,173.5L352.1,173.5z"/>
			<path d="M332.3,194.7h-223c-11.7,0-21.2-9.5-21.2-21.2c0-11.7,9.5-21.2,21.2-21.2h223c11.7,0,21.2,9.5,21.2,21.2
				C353.5,185.2,344,194.7,332.3,194.7z M109.4,155.2c-10.1,0-18.4,8.2-18.4,18.4c0,10.1,8.2,18.4,18.4,18.4h223
				c10.1,0,18.4-8.2,18.4-18.4c0-10.1-8.2-18.4-18.4-18.4H109.4z"/>
		</g>
		<g>
			<path fill="#231F20" d="M251.6,155.2h-60.1c-0.8,0-1.4-0.6-1.4-1.4v-12.9c0-0.8,0.6-1.4,1.4-1.4h60.1c0.8,0,1.4,0.6,1.4,1.4v12.9
				C253,154.5,252.4,155.2,251.6,155.2z M192.9,152.3h57.3v-10.1h-57.3V152.3z"/>
		</g>
		<g>
			<polygon fill="#FF8F6D" points="241.1,95.6 221.5,95.6 201.9,95.6 195,140.8 220.8,140.8 248,140.8 			"/>
			<path d="M248,142.2h-53c-0.4,0-0.8-0.2-1.1-0.5c-0.3-0.3-0.4-0.7-0.3-1.1l6.9-45.2c0.1-0.7,0.7-1.2,1.4-1.2h39.2
				c0.7,0,1.3,0.5,1.4,1.2l6.9,45.2c0.1,0.4-0.1,0.8-0.3,1.1C248.8,142,248.4,142.2,248,142.2z M196.7,139.4h49.7L239.9,97h-36.7
				L196.7,139.4z"/>
		</g>
		<g>
			<path fill="#231F20" d="M221.5,84.5c-0.8,0-1.4-0.6-1.4-1.4V56.5c0-0.8,0.6-1.4,1.4-1.4c0.8,0,1.4,0.6,1.4,1.4v26.6
				C222.9,83.9,222.3,84.5,221.5,84.5z"/>
		</g>
		<g>
			<path fill="#231F20" d="M237.9,84.5c-0.1,0-0.2,0-0.3,0c-0.8-0.2-1.3-0.9-1.1-1.7l4.8-21.7c0.2-0.8,0.9-1.2,1.7-1.1
				c0.8,0.2,1.3,0.9,1.1,1.7l-4.8,21.7C239.1,84.1,238.5,84.5,237.9,84.5z"/>
		</g>
		<g>
			<path fill="#231F20" d="M250,91.8c-0.4,0-0.9-0.2-1.2-0.6c-0.5-0.6-0.3-1.5,0.3-2l16.4-11.5c0.6-0.5,1.5-0.3,2,0.3
				c0.5,0.6,0.3,1.5-0.3,2l-16.4,11.5C250.5,91.7,250.3,91.8,250,91.8z"/>
		</g>
		<g>
			<path fill="#231F20" d="M205.1,84.5c-0.7,0-1.2-0.5-1.4-1.1l-4.8-21.7c-0.2-0.8,0.3-1.5,1.1-1.7c0.8-0.2,1.5,0.3,1.7,1.1
				l4.8,21.7c0.2,0.8-0.3,1.5-1.1,1.7C205.3,84.5,205.2,84.5,205.1,84.5z"/>
		</g>
		<g>
			<path fill="#231F20" d="M193,91.8c-0.3,0-0.6-0.1-0.8-0.3L175.9,80c-0.6-0.5-0.8-1.3-0.3-2c0.5-0.6,1.3-0.8,2-0.3l16.4,11.5
				c0.6,0.5,0.8,1.3,0.3,2C193.9,91.5,193.5,91.8,193,91.8z"/>
		</g>
		<g>
			<rect x="115.2" y="193.3" fill="#939598" width="18.5" height="336.7"/>
			<path d="M133.7,531.5h-18.5c-0.8,0-1.4-0.6-1.4-1.4V193.3c0-0.8,0.6-1.4,1.4-1.4h18.5c0.8,0,1.4,0.6,1.4,1.4V530
				C135.1,530.8,134.5,531.5,133.7,531.5z M116.6,528.6h15.7V194.7h-15.7V528.6z"/>
		</g>
		<g>
			<rect x="309.3" y="193.3" fill="#939598" width="18.5" height="336.7"/>
			<path d="M327.8,531.5h-18.5c-0.8,0-1.4-0.6-1.4-1.4V193.3c0-0.8,0.6-1.4,1.4-1.4h18.5c0.8,0,1.4,0.6,1.4,1.4V530
				C329.2,530.8,328.6,531.5,327.8,531.5z M310.7,528.6h15.7V194.7h-15.7V528.6z"/>
		</g>
	</g>
	<g>
		<path fill="#939598" d="M366.4,855.9c0,15.5-12.6,28-28,28H104.7c-15.5,0-28-12.6-28-28v-17.1c0-15.5,12.6-28,28-28h233.6
			c15.5,0,28,12.6,28,28V855.9z"/>
		<path d="M338.3,885.4H104.7c-16.2,0-29.5-13.2-29.5-29.5v-17.1c0-16.3,13.2-29.5,29.5-29.5h233.6c16.3,0,29.5,13.2,29.5,29.5v17.1
			C367.8,872.2,354.6,885.4,338.3,885.4z M104.7,812.2c-14.7,0-26.6,11.9-26.6,26.6v17.1c0,14.7,11.9,26.6,26.6,26.6h233.6
			c14.7,0,26.6-11.9,26.6-26.6v-17.1c0-14.7-11.9-26.6-26.6-26.6H104.7z"/>
	</g>
	<g>
		<circle fill="#E6E7E8" cx="111.5" cy="847.4" r="19.5"/>
		<path d="M111.5,868.3c-11.5,0-20.9-9.4-20.9-20.9c0-11.5,9.4-20.9,20.9-20.9c11.5,0,20.9,9.4,20.9,20.9
			C132.4,858.9,123,868.3,111.5,868.3z M111.5,829.3c-10,0-18.1,8.1-18.1,18.1c0,10,8.1,18.1,18.1,18.1c10,0,18.1-8.1,18.1-18.1
			C129.5,837.4,121.4,829.3,111.5,829.3z"/>
	</g>
	<g>
		<circle fill="#E6E7E8" cx="166.5" cy="847.4" r="19.5"/>
		<path d="M166.5,868.3c-11.5,0-20.9-9.4-20.9-20.9c0-11.5,9.4-20.9,20.9-20.9c11.5,0,20.9,9.4,20.9,20.9
			C187.4,858.9,178,868.3,166.5,868.3z M166.5,829.3c-10,0-18.1,8.1-18.1,18.1c0,10,8.1,18.1,18.1,18.1c10,0,18.1-8.1,18.1-18.1
			C184.5,837.4,176.4,829.3,166.5,829.3z"/>
	</g>
	<g>
		<path fill="#E6E7E8" d="M241,847.4c0,10.8-8.7,19.5-19.5,19.5c-10.8,0-19.5-8.7-19.5-19.5c0-10.8,8.7-19.5,19.5-19.5
			C232.3,827.9,241,836.6,241,847.4z"/>
		<path d="M221.5,868.3c-11.5,0-20.9-9.4-20.9-20.9c0-11.5,9.4-20.9,20.9-20.9c11.5,0,20.9,9.4,20.9,20.9
			C242.4,858.9,233,868.3,221.5,868.3z M221.5,829.3c-10,0-18.1,8.1-18.1,18.1c0,10,8.1,18.1,18.1,18.1c10,0,18.1-8.1,18.1-18.1
			C239.6,837.4,231.5,829.3,221.5,829.3z"/>
	</g>
	<g>
		<circle fill="#E6E7E8" cx="276.5" cy="847.4" r="19.5"/>
		<path d="M276.5,868.3c-11.5,0-20.9-9.4-20.9-20.9c0-11.5,9.4-20.9,20.9-20.9c11.5,0,20.9,9.4,20.9,20.9
			C297.4,858.9,288,868.3,276.5,868.3z M276.5,829.3c-10,0-18.1,8.1-18.1,18.1c0,10,8.1,18.1,18.1,18.1c10,0,18.1-8.1,18.1-18.1
			C294.6,837.4,286.5,829.3,276.5,829.3z"/>
	</g>
	<g>
		<circle fill="#E6E7E8" cx="331.5" cy="847.4" r="19.5"/>
		<path d="M331.5,868.3c-11.5,0-20.9-9.4-20.9-20.9c0-11.5,9.4-20.9,20.9-20.9c11.5,0,20.9,9.4,20.9,20.9
			C352.4,858.9,343.1,868.3,331.5,868.3z M331.5,829.3c-10,0-18.1,8.1-18.1,18.1c0,10,8.1,18.1,18.1,18.1c10,0,18.1-8.1,18.1-18.1
			C349.6,837.4,341.5,829.3,331.5,829.3z"/>
	</g>
	<g>
		<g>
			<g>
				<path fill="#FFFFFF" d="M491.7,304.3h29.9c0-17.7-7.3-33.7-19.1-45.2c-5.9,4.1-12.5,7.4-19.5,9.8
					C488.6,279.5,491.7,291.5,491.7,304.3z"/>
				<path d="M521.7,305.7h-29.9c-0.8,0-1.4-0.6-1.4-1.4c0-12.3-2.9-23.9-8.5-34.8c-0.2-0.4-0.2-0.8-0.1-1.2c0.2-0.4,0.5-0.7,0.9-0.8
					c6.8-2.3,13.2-5.5,19.1-9.6c0.6-0.4,1.3-0.3,1.8,0.1c12.6,12.2,19.6,28.6,19.6,46.2C523.1,305.1,522.5,305.7,521.7,305.7z
					 M493.2,302.9h27.1c-0.4-15.9-6.7-30.6-17.9-41.9c-5.4,3.6-11.2,6.6-17.3,8.7C490.2,280.1,493,291.2,493.2,302.9z"/>
			</g>
			<g>
				<path fill="#FFFFFF" d="M483.1,339.7c7,2.3,13.5,5.6,19.5,9.8c11.8-11.4,19.1-27.4,19.1-45.2h-29.9
					C491.7,317.1,488.6,329.1,483.1,339.7z"/>
				<path d="M502.6,350.9c-0.3,0-0.6-0.1-0.8-0.3c-5.9-4.1-12.3-7.3-19.1-9.6c-0.4-0.1-0.7-0.4-0.9-0.8c-0.2-0.4-0.1-0.8,0.1-1.2
					c5.6-10.8,8.5-22.5,8.5-34.8c0-0.8,0.6-1.4,1.4-1.4h29.9c0.8,0,1.4,0.6,1.4,1.4c0,17.6-7,34-19.6,46.2
					C503.3,350.8,502.9,350.9,502.6,350.9z M485.1,338.9c6.1,2.2,11.9,5.1,17.3,8.7c11.2-11.3,17.5-26.1,17.9-41.9h-27.1
					C492.9,317.2,490.2,328.6,485.1,338.9z"/>
			</g>
			<g>
				<path fill="#FFFFFF" d="M483.1,268.9c7-2.3,13.5-5.6,19.5-9.8c-11.3-10.9-26.7-17.7-43.6-17.7
					C469,248.5,477.4,257.9,483.1,268.9z"/>
				<path d="M483.1,270.3c-0.5,0-1-0.3-1.3-0.8c-5.6-10.7-13.8-20.1-23.7-27c-0.5-0.4-0.7-1-0.5-1.6s0.7-1,1.4-1c0,0,0,0,0,0
					c16.7,0,32.6,6.5,44.6,18.1c0.3,0.3,0.5,0.7,0.4,1.1c0,0.4-0.3,0.8-0.6,1.1c-6.1,4.2-12.8,7.6-19.8,9.9
					C483.4,270.3,483.2,270.3,483.1,270.3z M463.5,243c8.3,6.6,15.3,14.9,20.3,24.2c5.8-2,11.4-4.8,16.5-8.2
					C490.1,249.6,477.2,244,463.5,243z"/>
			</g>
			<g>
				<path fill="#FFFFFF" d="M425.8,304.3h-30c0,17.7,7.3,33.7,19.1,45.2c5.9-4.1,12.5-7.4,19.5-9.8
					C428.9,329.1,425.8,317.1,425.8,304.3z"/>
				<path d="M415,350.9c-0.4,0-0.7-0.1-1-0.4c-12.6-12.2-19.6-28.6-19.6-46.2c0-0.8,0.6-1.4,1.4-1.4h30c0.8,0,1.4,0.6,1.4,1.4
					c0,12.2,2.9,23.9,8.5,34.8c0.2,0.4,0.2,0.8,0.1,1.2c-0.2,0.4-0.5,0.7-0.9,0.8c-6.8,2.3-13.2,5.5-19.1,9.6
					C415.6,350.8,415.3,350.9,415,350.9z M397.3,305.7c0.4,15.9,6.7,30.6,17.9,41.9c5.4-3.6,11.2-6.6,17.3-8.7
					c-5.1-10.4-7.9-21.6-8.1-33.2H397.3z"/>
			</g>
			<g>
				<path fill="#FFFFFF" d="M434.5,268.9c-7-2.3-13.5-5.6-19.5-9.8c-11.8,11.4-19.1,27.5-19.1,45.2h30
					C425.8,291.5,428.9,279.5,434.5,268.9z"/>
				<path d="M425.8,305.7h-30c-0.8,0-1.4-0.6-1.4-1.4c0-17.6,7-34,19.6-46.2c0.5-0.5,1.2-0.5,1.8-0.1c5.9,4.1,12.3,7.3,19.1,9.6
					c0.4,0.1,0.7,0.4,0.9,0.8c0.2,0.4,0.1,0.8-0.1,1.2c-5.6,10.8-8.5,22.5-8.5,34.8C427.2,305.1,426.6,305.7,425.8,305.7z
					 M397.3,302.9h27.1c0.2-11.6,2.9-22.8,8.1-33.2c-6.1-2.2-11.9-5.1-17.3-8.7C403.9,272.2,397.6,287,397.3,302.9z"/>
			</g>
			<g>
				<path fill="#FFFFFF" d="M425.8,304.3c0,12.8,3.1,24.8,8.7,35.4c7.6-2.5,15.8-4,24.3-4v-31.5H425.8z"/>
				<path d="M434.5,341.1c-0.5,0-1-0.3-1.3-0.8c-5.9-11.2-8.8-23.4-8.8-36.1c0-0.8,0.6-1.4,1.4-1.4h33c0.8,0,1.4,0.6,1.4,1.4v31.5
					c0,0.8-0.6,1.4-1.4,1.4c-8.1,0-16.1,1.3-23.9,3.9C434.8,341.1,434.6,341.1,434.5,341.1z M427.2,305.7
					c0.2,11.3,2.9,22.2,7.9,32.3c7.2-2.3,14.6-3.5,22.2-3.6v-28.6H427.2z"/>
			</g>
			<g>
				<path fill="#FFFFFF" d="M458.8,272.8c-8.5,0-16.7-1.4-24.3-4c-5.5,10.6-8.7,22.6-8.7,35.4h33V272.8z"/>
				<path d="M458.8,305.7h-33c-0.8,0-1.4-0.6-1.4-1.4c0-12.7,3-24.8,8.8-36.1c0.3-0.6,1.1-0.9,1.7-0.7c7.7,2.6,15.8,3.9,23.9,3.9
					c0.8,0,1.4,0.6,1.4,1.4v31.5C460.2,305.1,459.6,305.7,458.8,305.7z M427.2,302.9h30.1v-28.6c-7.5-0.1-15-1.4-22.2-3.6
					C430.1,280.7,427.4,291.6,427.2,302.9z"/>
			</g>
			<g>
				<path fill="#FFFFFF" d="M458.8,304.3h33c0-12.8-3.1-24.8-8.7-35.4c-7.6,2.5-15.8,4-24.3,4V304.3z"/>
				<path d="M491.7,305.7h-33c-0.8,0-1.4-0.6-1.4-1.4v-31.5c0-0.8,0.6-1.4,1.4-1.4c8.1,0,16.1-1.3,23.9-3.9c0.7-0.2,1.4,0.1,1.7,0.7
					c5.9,11.2,8.8,23.4,8.8,36.1C493.2,305.1,492.5,305.7,491.7,305.7z M460.2,302.9h30.1c-0.2-11.3-2.9-22.2-7.9-32.3
					c-7.2,2.3-14.6,3.5-22.2,3.6V302.9z"/>
			</g>
			<g>
				<path fill="#FFFFFF" d="M458.8,335.8c8.5,0,16.7,1.4,24.3,4c5.5-10.6,8.7-22.6,8.7-35.4h-33V335.8z"/>
				<path d="M483.1,341.1c-0.2,0-0.3,0-0.5-0.1c-7.7-2.6-15.8-3.9-23.9-3.9c-0.8,0-1.4-0.6-1.4-1.4v-31.5c0-0.8,0.6-1.4,1.4-1.4h33
					c0.8,0,1.4,0.6,1.4,1.4c0,12.5-3.1,25-8.8,36.1C484.1,340.9,483.6,341.1,483.1,341.1z M460.2,334.4c7.5,0.1,15,1.4,22.2,3.6
					c5.1-10.1,7.7-20.9,7.9-32.3h-30.1V334.4z"/>
			</g>
			<g>
				<path fill="#FFFFFF" d="M458.6,241.4c-16.9,0-32.3,6.8-43.6,17.7c5.9,4.1,12.5,7.4,19.5,9.8
					C440.2,257.9,448.5,248.5,458.6,241.4z"/>
				<path d="M434.5,270.3c-0.2,0-0.3,0-0.5-0.1c-7.1-2.4-13.7-5.7-19.8-9.9c-0.3-0.2-0.6-0.6-0.6-1.1c0-0.4,0.1-0.8,0.4-1.1
					c12-11.7,27.9-18.1,44.6-18.1c0,0,0,0,0,0c0.6,0,1.2,0.4,1.4,1c0.2,0.6,0,1.2-0.5,1.6c-9.9,6.9-18.1,16.3-23.7,27
					C435.5,270,435,270.3,434.5,270.3z M417.3,258.9c5.1,3.4,10.7,6.2,16.5,8.2c5-9.3,12-17.6,20.3-24.2
					C440.4,244,427.5,249.6,417.3,258.9z"/>
			</g>
			<g>
				<path fill="#FFFFFF" d="M459,241.4c-0.1,0-0.1-0.1-0.2-0.1c-0.1,0-0.1,0.1-0.2,0.1c0.1,0,0.1,0,0.2,0
					C458.8,241.4,458.9,241.4,459,241.4z"/>
				<path d="M459,242.8c0,0-0.1,0-0.1,0c-0.6,0-1.3-0.4-1.5-1c-0.2-0.6-0.1-1.2,0.4-1.6c0.5-0.4,1.4-0.5,1.9-0.1
					c0.5,0.4,0.8,1.1,0.6,1.7C460,242.4,459.6,242.8,459,242.8z"/>
			</g>
			<g>
				<path fill="#FFFFFF" d="M434.5,268.9c7.6,2.5,15.8,4,24.3,4v-31.5c-0.1,0-0.1,0-0.2,0C448.5,248.5,440.2,257.9,434.5,268.9z"/>
				<path d="M458.8,274.3c-8.4,0-16.7-1.4-24.8-4c-0.4-0.1-0.7-0.4-0.9-0.8c-0.2-0.4-0.1-0.8,0.1-1.2c5.8-11.1,14.3-20.8,24.6-28
					c0.9-0.6,2.4,0.1,2.4,1.2v31.5C460.2,273.6,459.6,274.3,458.8,274.3z M436.5,268.1c6.8,2.1,13.8,3.2,20.8,3.3v-27.4
					C448.8,250.5,441.7,258.7,436.5,268.1z"/>
			</g>
			<g>
				<path fill="#FFFFFF" d="M458.8,272.8c8.5,0,16.7-1.4,24.3-4c-5.7-11-14-20.4-24.1-27.5c-0.1,0-0.1,0-0.2,0V272.8z"/>
				<path d="M458.8,274.3c-0.8,0-1.4-0.6-1.4-1.4v-31.5c0-0.8,0.6-1.4,1.4-1.4c0.3,0,0.8,0.1,1,0.3c10.3,7.2,18.8,16.9,24.6,28
					c0.2,0.4,0.2,0.8,0.1,1.2c-0.2,0.4-0.5,0.7-0.9,0.8C475.5,272.9,467.2,274.3,458.8,274.3z M460.2,244v27.4
					c7.1-0.1,14.1-1.3,20.8-3.3C475.9,258.7,468.7,250.5,460.2,244z"/>
			</g>
			<g>
				<path fill="#FFFFFF" d="M458.9,367.2c16.9,0,32.3-6.8,43.6-17.7c-5.9-4.1-12.5-7.4-19.5-9.8C477.4,350.7,469,360.2,458.9,367.2z
					"/>
				<path d="M458.9,368.6c-0.6,0-1.2-0.4-1.4-1c-0.2-0.6,0-1.2,0.5-1.6c9.9-6.9,18.1-16.3,23.7-27c0.3-0.6,1-0.9,1.7-0.7
					c7.1,2.4,13.7,5.7,19.8,9.9c0.4,0.2,0.6,0.6,0.6,1.1c0,0.4-0.1,0.8-0.4,1.1C491.5,362.2,475.7,368.6,458.9,368.6
					C458.9,368.6,458.9,368.6,458.9,368.6z M483.8,341.5c-5,9.3-12,17.6-20.3,24.2c13.7-1,26.6-6.6,36.8-16
					C495.1,346.3,489.6,343.5,483.8,341.5z"/>
			</g>
			<g>
				<path fill="#FFFFFF" d="M434.5,339.7c-7,2.3-13.5,5.6-19.5,9.8c11.3,10.9,26.7,17.7,43.6,17.7
					C448.5,360.2,440.2,350.7,434.5,339.7z"/>
				<path d="M458.6,368.6C458.6,368.6,458.6,368.6,458.6,368.6c-16.7,0-32.6-6.5-44.6-18.1c-0.3-0.3-0.5-0.7-0.4-1.1
					c0-0.4,0.3-0.8,0.6-1.1c6.1-4.2,12.8-7.6,19.8-9.9c0.7-0.2,1.4,0.1,1.7,0.7c5.6,10.7,13.8,20,23.7,27c0.5,0.4,0.7,1,0.5,1.6
					C459.8,368.2,459.2,368.6,458.6,368.6z M417.3,349.7c10.2,9.4,23.1,14.9,36.8,16c-8.3-6.6-15.3-14.9-20.3-24.2
					C427.9,343.5,422.4,346.3,417.3,349.7z"/>
			</g>
			<g>
				<path fill="#FFFFFF" d="M458.6,367.2c0.1,0,0.1,0.1,0.2,0.1c0.1,0,0.1-0.1,0.2-0.1c-0.1,0-0.1,0-0.2,0
					C458.7,367.2,458.7,367.2,458.6,367.2z"/>
				<path d="M458.7,368.7c-0.3,0-0.6-0.1-0.8-0.2c0,0,0,0,0,0c-0.5-0.4-0.8-1.1-0.6-1.6c0.2-0.6,0.7-1,1.3-1h0.4
					c0.6,0,1.2,0.4,1.4,1c0.2,0.6,0,1.2-0.6,1.6C459.5,368.6,459.1,368.7,458.7,368.7z"/>
			</g>
			<g>
				<path fill="#FFFFFF" d="M458.8,335.8c-8.5,0-16.7,1.4-24.3,4c5.7,11,14,20.4,24.1,27.5c0.1,0,0.1,0,0.2,0V335.8z"/>
				<path d="M458.8,368.7c0,0-0.1,0-0.1,0c-0.3,0-0.6-0.1-0.9-0.3c-10.3-7.2-18.8-16.9-24.6-28c-0.2-0.4-0.2-0.8-0.1-1.2
					c0.2-0.4,0.5-0.7,0.9-0.8c8-2.7,16.3-4,24.8-4c0.8,0,1.4,0.6,1.4,1.4v31.5C460.2,368,459.6,368.7,458.8,368.7z M436.5,340.6
					c5.1,9.3,12.3,17.6,20.8,24v-27.4C450.3,337.3,443.3,338.5,436.5,340.6z"/>
			</g>
			<g>
				<path fill="#FFFFFF" d="M483.1,339.7c-7.6-2.5-15.8-4-24.3-4v31.5c0.1,0,0.1,0,0.2,0C469,360.2,477.4,350.7,483.1,339.7z"/>
				<path d="M458.9,368.6c-0.8,0-1.6-0.6-1.6-1.4v-31.5c0-0.8,0.6-1.4,1.4-1.4c8.4,0,16.8,1.4,24.8,4c0.4,0.1,0.7,0.4,0.9,0.8
					c0.2,0.4,0.1,0.8-0.1,1.2c-5.8,11.1-14.3,20.8-24.6,28C459.5,368.6,459.2,368.6,458.9,368.6z M460.2,337.2v27.4
					c8.5-6.4,15.7-14.7,20.8-24C474.3,338.5,467.3,337.3,460.2,337.2z"/>
			</g>
		</g>
		<g>
			<path fill="#FF8F6D" d="M531.6,222.7l-56.7,0l-11.3-11.3c-6.1-6.1-16-6.1-22.1,0c-6.1,6.1-6.1,16,0,22.1l11.3,11.3l0,56.7
				c0,6.3,5.1,11.4,11.4,11.4c6.3,0,11.4-5.1,11.4-11.4l5.1-28.8l34,34c0.1,0.1,0.3,0.2,0.5,0.4l6.4,23.8l17.1-26.6l22.4-12.8
				l-23.8-6.4c-0.1-0.1-0.2-0.3-0.4-0.5l-34-34l28.7-5.1c6.3,0,11.4-5.1,11.4-11.4C543,227.8,537.9,222.7,531.6,222.7z"/>
			<path d="M521.5,332.4c-0.1,0-0.1,0-0.2,0c-0.6-0.1-1-0.5-1.2-1l-6.3-23.4c-0.1-0.1-0.1-0.1-0.2-0.2l-32.1-32.1l-4.6,26.1
				c0,6.8-5.8,12.6-12.8,12.6c-3.4,0-6.7-1.3-9.1-3.8c-2.4-2.4-3.8-5.7-3.8-9.1l0-56.1l-10.8-10.8c-6.6-6.6-6.6-17.5,0-24.1
				c3.2-3.2,7.5-5,12.1-5c4.6,0,8.8,1.8,12,5l10.8,10.8l56.1,0c7.1,0,12.9,5.8,12.9,12.9c0,7.1-5.8,12.9-12.9,12.9l-25.8,4.6
				l32.1,32.1c0.1,0.1,0.1,0.1,0.2,0.2l23.4,6.3c0.6,0.1,1,0.6,1,1.2c0.1,0.6-0.2,1.1-0.7,1.4l-22.1,12.7l-16.9,26.3
				C522.5,332.1,522,332.4,521.5,332.4z M480.7,271.3c0.4,0,0.7,0.1,1,0.4l34,34c0,0,0.4,0.3,0.4,0.3c0.2,0.2,0.3,0.4,0.4,0.7
				l5.6,20.7l15.4-23.9c0.1-0.2,0.3-0.4,0.5-0.5l19.4-11.1l-20.5-5.5c-0.3-0.1-0.5-0.2-0.7-0.4c0,0-0.2-0.3-0.2-0.3l-34.1-34.1
				c-0.4-0.4-0.5-0.9-0.4-1.4c0.2-0.5,0.6-0.9,1.1-1l28.7-5.1c5.8,0,10.3-4.5,10.3-10c0-5.5-4.5-10-10-10l-56.7,0
				c-0.4,0-0.7-0.2-1-0.4l-11.3-11.3c-2.7-2.7-6.2-4.2-10-4.2c-3.8,0-7.4,1.5-10,4.2c-5.5,5.5-5.5,14.5,0,20.1l11.3,11.3
				c0.3,0.3,0.4,0.6,0.4,1l0,56.7c0,2.7,1,5.2,2.9,7.1c1.9,1.9,4.4,2.9,7.1,2.9c5.5,0,10-4.5,10-10l5.1-29c0.1-0.5,0.5-1,1-1.1
				C480.4,271.3,480.6,271.3,480.7,271.3z"/>
		</g>
		<g>
			<path d="M569.4,392.4H372.5c-0.8,0-1.4-0.6-1.4-1.4V194.1c0-0.8,0.6-1.4,1.4-1.4h196.9c0.8,0,1.4,0.6,1.4,1.4V391
				C570.8,391.8,570.2,392.4,569.4,392.4z M373.9,389.6h194v-194h-194V389.6z"/>
		</g>
	</g>
	<g>
		<g>
			<path fill="#FFD275" d="M888.9,873.7c0,9-7.3,16.3-16.3,16.3H552.4c-9,0-16.3-7.3-16.3-16.3V694.6c0-9,7.3-16.3,16.3-16.3h320.2
				c9,0,16.3,7.3,16.3,16.3V873.7z"/>
			<path d="M872.7,891.4H552.4c-9.8,0-17.7-7.9-17.7-17.7V694.6c0-9.8,7.9-17.7,17.7-17.7h320.2c9.8,0,17.7,7.9,17.7,17.7v179.1
				C890.4,883.4,882.4,891.4,872.7,891.4z M552.4,679.7c-8.2,0-14.9,6.7-14.9,14.9v179.1c0,8.2,6.7,14.9,14.9,14.9h320.2
				c8.2,0,14.9-6.7,14.9-14.9V694.6c0-8.2-6.7-14.9-14.9-14.9H552.4z"/>
		</g>
		<g>
			<circle fill="#6EB6F9" cx="587.4" cy="727.1" r="23.5"/>
			<path d="M587.4,752.1c-13.8,0-24.9-11.2-24.9-24.9c0-13.8,11.2-24.9,24.9-24.9c13.8,0,24.9,11.2,24.9,24.9
				C612.3,740.9,601.1,752.1,587.4,752.1z M587.4,705c-12.2,0-22.1,9.9-22.1,22.1c0,12.2,9.9,22.1,22.1,22.1
				c12.2,0,22.1-9.9,22.1-22.1C609.4,714.9,599.5,705,587.4,705z"/>
		</g>
		<g>
			<path fill="#FF8F6D" d="M640.5,727.1c0,13-10.5,23.5-23.5,23.5c-13,0-23.5-10.5-23.5-23.5s10.5-23.5,23.5-23.5
				C630,703.6,640.5,714.1,640.5,727.1z"/>
			<path d="M617,752.1c-13.8,0-24.9-11.2-24.9-24.9c0-13.8,11.2-24.9,24.9-24.9c13.8,0,24.9,11.2,24.9,24.9
				C641.9,740.9,630.8,752.1,617,752.1z M617,705c-12.2,0-22.1,9.9-22.1,22.1c0,12.2,9.9,22.1,22.1,22.1c12.2,0,22.1-9.9,22.1-22.1
				C639.1,714.9,629.2,705,617,705z"/>
		</g>
		<g>
			<rect x="573.2" y="817.6" fill="#939598" width="53.4" height="20.8"/>
			<path d="M626.6,839.8h-53.4c-0.8,0-1.4-0.6-1.4-1.4v-20.8c0-0.8,0.6-1.4,1.4-1.4h53.4c0.8,0,1.4,0.6,1.4,1.4v20.8
				C628,839.2,627.4,839.8,626.6,839.8z M574.7,837h50.5v-18h-50.5V837z"/>
		</g>
		<g>
			<rect x="648.3" y="817.6" fill="#939598" width="53.4" height="20.8"/>
			<path d="M701.7,839.8h-53.4c-0.8,0-1.4-0.6-1.4-1.4v-20.8c0-0.8,0.6-1.4,1.4-1.4h53.4c0.8,0,1.4,0.6,1.4,1.4v20.8
				C703.1,839.2,702.5,839.8,701.7,839.8z M649.7,837h50.5v-18h-50.5V837z"/>
		</g>
		<g>
			<rect x="723.4" y="817.6" fill="#939598" width="53.4" height="20.8"/>
			<path d="M776.8,839.8h-53.4c-0.8,0-1.4-0.6-1.4-1.4v-20.8c0-0.8,0.6-1.4,1.4-1.4h53.4c0.8,0,1.4,0.6,1.4,1.4v20.8
				C778.2,839.2,777.6,839.8,776.8,839.8z M724.8,837h50.5v-18h-50.5V837z"/>
		</g>
		<g>
			<rect x="798.5" y="817.6" fill="#939598" width="53.4" height="20.8"/>
			<path d="M851.9,839.8h-53.4c-0.8,0-1.4-0.6-1.4-1.4v-20.8c0-0.8,0.6-1.4,1.4-1.4h53.4c0.8,0,1.4,0.6,1.4,1.4v20.8
				C853.3,839.2,852.6,839.8,851.9,839.8z M799.9,837h50.5v-18h-50.5V837z"/>
		</g>
		<g>
			<line fill="#FFFFFF" x1="851.9" y1="727.1" x2="691.5" y2="727.1"/>
			<path d="M851.9,728.6H691.5c-0.8,0-1.4-0.6-1.4-1.4s0.6-1.4,1.4-1.4h160.3c0.8,0,1.4,0.6,1.4,1.4S852.6,728.6,851.9,728.6z"/>
		</g>
		<g>
			<line fill="#FFFFFF" x1="851.9" y1="768.5" x2="794" y2="768.5"/>
			<path d="M851.9,769.9H794c-0.8,0-1.4-0.6-1.4-1.4c0-0.8,0.6-1.4,1.4-1.4h57.9c0.8,0,1.4,0.6,1.4,1.4
				C853.3,769.3,852.6,769.9,851.9,769.9z"/>
		</g>
		<g>
			<line fill="#FFFFFF" x1="770.2" y1="768.5" x2="701.7" y2="768.5"/>
			<path d="M770.2,769.9h-68.5c-0.8,0-1.4-0.6-1.4-1.4c0-0.8,0.6-1.4,1.4-1.4h68.5c0.8,0,1.4,0.6,1.4,1.4
				C771.6,769.3,771,769.9,770.2,769.9z"/>
		</g>
	</g>
	<g>
		<rect x="941.3" y="750.7" fill="#6EB6F9" width="87.7" height="87.7"/>
		<path d="M1029,839.8h-87.7c-0.8,0-1.4-0.6-1.4-1.4v-87.7c0-0.8,0.6-1.4,1.4-1.4h87.7c0.8,0,1.4,0.6,1.4,1.4v87.7
			C1030.4,839.2,1029.8,839.8,1029,839.8z M942.7,837h84.9v-84.9h-84.9V837z"/>
	</g>
	<g>
		<rect x="1072.9" y="750.7" fill="#FFD275" width="87.7" height="87.7"/>
		<path d="M1160.6,839.8h-87.7c-0.8,0-1.4-0.6-1.4-1.4v-87.7c0-0.8,0.6-1.4,1.4-1.4h87.7c0.8,0,1.4,0.6,1.4,1.4v87.7
			C1162.1,839.2,1161.4,839.8,1160.6,839.8z M1074.3,837h84.9v-84.9h-84.9V837z"/>
	</g>
	<g>
		<rect x="1204.5" y="750.7" fill="#FF8F6D" width="87.7" height="87.7"/>
		<path d="M1292.3,839.8h-87.7c-0.8,0-1.4-0.6-1.4-1.4v-87.7c0-0.8,0.6-1.4,1.4-1.4h87.7c0.8,0,1.4,0.6,1.4,1.4v87.7
			C1293.7,839.2,1293.1,839.8,1292.3,839.8z M1205.9,837h84.9v-84.9h-84.9V837z"/>
	</g>
	<g>
		<path d="M976.9,819c-0.4,0-0.7-0.2-1-0.4l-22.5-22.5c-0.6-0.6-0.6-1.5,0-2s1.5-0.6,2,0l21.5,21.5l39.7-39.7c0.6-0.6,1.5-0.6,2,0
			s0.6,1.5,0,2l-40.8,40.8C977.6,818.9,977.2,819,976.9,819z"/>
	</g>
	<g>
		<path d="M1107.6,819c-0.4,0-0.7-0.2-1-0.4l-22.5-22.5c-0.6-0.6-0.6-1.5,0-2c0.6-0.6,1.5-0.6,2,0l21.5,21.5l39.7-39.7
			c0.6-0.6,1.5-0.6,2,0s0.6,1.5,0,2l-40.8,40.8C1108.4,818.9,1108,819,1107.6,819z"/>
	</g>
	<g>
		<path d="M1238.4,819c-0.4,0-0.7-0.2-1-0.4l-22.5-22.5c-0.6-0.6-0.6-1.5,0-2s1.5-0.6,2,0l21.5,21.5l39.7-39.7c0.6-0.6,1.5-0.6,2,0
			s0.6,1.5,0,2l-40.8,40.8C1239.2,818.9,1238.8,819,1238.4,819z"/>
	</g>
	<g>
		<path fill="#231F20" d="M1157.7,569.8c-0.4,0-0.7-0.1-1-0.4l-106.7-106.7c-0.6-0.6-0.6-1.5,0-2c0.6-0.6,1.5-0.6,2,0l106.7,106.7
			c0.6,0.6,0.6,1.5,0,2C1158.4,569.7,1158,569.8,1157.7,569.8z"/>
	</g>
	<g>
		<path fill="#231F20" d="M1104.3,482.3c-0.4,0-0.7-0.1-1-0.4l-53.2-53.2c-0.6-0.6-0.6-1.5,0-2c0.6-0.6,1.5-0.6,2,0l53.2,53.2
			c0.6,0.6,0.6,1.5,0,2C1105,482.2,1104.7,482.3,1104.3,482.3z"/>
	</g>
	<g>
		<path fill="#231F20" d="M1282.9,695c-0.4,0-0.7-0.1-1-0.4l-125.2-125.2c-0.6-0.6-0.6-1.5,0-2c0.6-0.6,1.5-0.6,2,0l125.2,125.2
			c0.6,0.6,0.6,1.5,0,2C1283.6,694.9,1283.2,695,1282.9,695z"/>
	</g>
	<g>
		<path fill="#231F20" d="M1236.1,686c-0.4,0-0.7-0.1-1-0.4l-27.3-27.3c-0.6-0.6-0.6-1.5,0-2c0.6-0.6,1.5-0.6,2,0l27.3,27.3
			c0.6,0.6,0.6,1.5,0,2C1236.8,685.8,1236.5,686,1236.1,686z"/>
	</g>
	<g>
		<path fill="#231F20" d="M1335,706.6c-0.4,0-0.7-0.1-1-0.4l-87.5-87.5c-0.6-0.6-0.6-1.5,0-2s1.5-0.6,2,0l87.5,87.5
			c0.6,0.6,0.6,1.5,0,2C1335.8,706.4,1335.4,706.6,1335,706.6z"/>
	</g>
	<g>
		<g>
			<circle fill="#FF8F6D" cx="1157.7" cy="568.4" r="102.5"/>
			<path d="M1157.7,672.3c-57.3,0-103.9-46.6-103.9-103.9c0-57.3,46.6-103.9,103.9-103.9c57.3,0,103.9,46.6,103.9,103.9
				C1261.6,625.7,1215,672.3,1157.7,672.3z M1157.7,467.3c-55.7,0-101.1,45.3-101.1,101.1c0,55.7,45.3,101.1,101.1,101.1
				c55.7,0,101.1-45.3,101.1-101.1C1258.7,512.7,1213.4,467.3,1157.7,467.3z"/>
		</g>
		<g>
			<g>
				<path fill="#FFFFFF" d="M1073,568.4c0-46.8,37.9-84.7,84.7-84.7c46.8,0,84.7,37.9,84.7,84.7c0,46.8-37.9,84.7-84.7,84.7
					C1110.9,653.1,1073,615.2,1073,568.4z"/>
				<path fill="#231F20" d="M1157.7,654.5c-47.5,0-86.1-38.6-86.1-86.1c0-47.5,38.6-86.1,86.1-86.1c47.5,0,86.1,38.6,86.1,86.1
					C1243.8,615.9,1205.2,654.5,1157.7,654.5z M1157.7,485.1c-45.9,0-83.3,37.4-83.3,83.3c0,45.9,37.4,83.3,83.3,83.3
					c45.9,0,83.3-37.4,83.3-83.3C1240.9,522.5,1203.6,485.1,1157.7,485.1z"/>
			</g>
			<g>
				<path fill="#6EB6F9" d="M1146.5,568.4c0-6.2,5-11.2,11.2-11.2c6.2,0,11.2,5,11.2,11.2c0,6.2-5,11.2-11.2,11.2
					C1151.5,579.6,1146.5,574.6,1146.5,568.4z"/>
				<path d="M1157.7,581c-7,0-12.6-5.7-12.6-12.6c0-7,5.7-12.6,12.6-12.6c7,0,12.6,5.7,12.6,12.6
					C1170.3,575.4,1164.6,581,1157.7,581z M1157.7,558.6c-5.4,0-9.8,4.4-9.8,9.8c0,5.4,4.4,9.8,9.8,9.8s9.8-4.4,9.8-9.8
					C1167.4,563,1163.1,558.6,1157.7,558.6z"/>
			</g>
			<g>
				<line fill="#FFFFFF" x1="1146.5" y1="568.4" x2="1112" y2="568.4"/>
				<path fill="#231F20" d="M1146.5,569.8H1112c-0.8,0-1.4-0.6-1.4-1.4s0.6-1.4,1.4-1.4h34.5c0.8,0,1.4,0.6,1.4,1.4
					S1147.2,569.8,1146.5,569.8z"/>
			</g>
			<g>
				<line fill="#FFFFFF" x1="1157.7" y1="557.2" x2="1157.7" y2="506.4"/>
				<path fill="#231F20" d="M1157.7,558.6c-0.8,0-1.4-0.6-1.4-1.4v-50.8c0-0.8,0.6-1.4,1.4-1.4c0.8,0,1.4,0.6,1.4,1.4v50.8
					C1159.1,558,1158.4,558.6,1157.7,558.6z"/>
			</g>
		</g>
	</g>
</g>
</svg>
