<?xml version="1.0" encoding="UTF-8" standalone="no"?>
<svg xmlns:dc="http://purl.org/dc/elements/1.1/" xmlns:cc="http://creativecommons.org/ns#" xmlns:rdf="http://www.w3.org/1999/02/22-rdf-syntax-ns#" xmlns:svg="http://www.w3.org/2000/svg" xmlns="http://www.w3.org/2000/svg" xmlns:sodipodi="http://sodipodi.sourceforge.net/DTD/sodipodi-0.dtd" xmlns:inkscape="http://www.inkscape.org/namespaces/inkscape" width="64" height="64" viewBox="0 0 64 64" id="svg5742" version="1.1" inkscape:version="0.91 r" sodipodi:docname="Air-ballon-fly-holiday-hot-travel.svg">
  <sodipodi:namedview id="base" pagecolor="#ffffff" bordercolor="#666666" borderopacity="1.0" inkscape:pageopacity="0.0" inkscape:pageshadow="2" inkscape:zoom="2.1036883" inkscape:cx="30.762539" inkscape:cy="50.595793" inkscape:document-units="px" inkscape:current-layer="layer1" showgrid="false" units="px" inkscape:window-width="1309" inkscape:window-height="744" inkscape:window-x="57" inkscape:window-y="24" inkscape:window-maximized="1" showguides="true" inkscape:guide-bbox="true">
    <inkscape:grid empspacing="4" id="grid4204" type="xygrid"/>
  </sodipodi:namedview>
  <defs id="defs5744">
    <inkscape:path-effect is_visible="true" id="path-effect4707" effect="spiro"/>
  </defs>
  
  <g transform="translate(0,-988.3622)" id="layer1" inkscape:groupmode="layer" inkscape:label="Layer 1">
    <g id="g5549">
      <circle r="32" cy="1020.3622" cx="32" id="circle10502" style="color:#000000;clip-rule:nonzero;display:inline;overflow:visible;visibility:visible;opacity:1;isolation:auto;mix-blend-mode:normal;color-interpolation:sRGB;color-interpolation-filters:linearRGB;solid-color:#000000;solid-opacity:1;fill:#b8d4e8;fill-opacity:1;fill-rule:nonzero;stroke:none;stroke-width:1;stroke-linecap:round;stroke-linejoin:round;stroke-miterlimit:4;stroke-dasharray:none;stroke-dashoffset:0;stroke-opacity:1;color-rendering:auto;image-rendering:auto;shape-rendering:auto;text-rendering:auto;enable-background:accumulate"/>
      <path id="path5355" transform="translate(0,988.3622)" d="M 32 10.316406 C 30.620126 10.349306 29.511332 10.667797 28.626953 11.210938 C 24.871503 11.55748 22.5403 12.696975 21.208984 14.314453 C 21.01997 14.544096 20.853085 14.783199 20.703125 15.03125 L 20.697266 15.025391 C 20.578909 15.096363 20.480346 15.172044 20.367188 15.244141 C 20.161438 15.375129 19.956513 15.506069 19.767578 15.640625 C 19.631288 15.737754 19.506642 15.836645 19.378906 15.935547 C 19.219494 16.058886 19.062414 16.182621 18.916016 16.308594 C 18.793151 16.414403 18.676402 16.52133 18.5625 16.628906 C 18.433336 16.750771 18.311283 16.874025 18.193359 16.998047 C 18.093982 17.102672 17.991959 17.20642 17.900391 17.3125 C 17.76447 17.469811 17.642643 17.630699 17.523438 17.791016 C 17.465629 17.868839 17.399672 17.944947 17.345703 18.023438 C 17.186105 18.255297 17.045147 18.489341 16.917969 18.726562 C 16.86573 18.824112 16.824298 18.923112 16.777344 19.021484 C 16.703596 19.175786 16.631414 19.33015 16.570312 19.486328 C 16.529276 19.591389 16.492514 19.696895 16.457031 19.802734 C 16.404644 19.958707 16.359041 20.115924 16.318359 20.273438 C 16.292216 20.374873 16.265578 20.476113 16.244141 20.578125 C 16.205512 20.761474 16.176281 20.945863 16.152344 21.130859 C 16.142773 21.205154 16.130324 21.278988 16.123047 21.353516 C 16.097303 21.615585 16.084516 21.878121 16.085938 22.142578 C 16.086196 22.188077 16.090766 22.233741 16.091797 22.279297 C 16.096829 22.50524 16.109499 22.731932 16.132812 22.958984 C 16.141262 23.040975 16.153333 23.122986 16.164062 23.205078 C 16.188052 23.389132 16.216948 23.573438 16.251953 23.757812 C 16.270052 23.85295 16.289641 23.947799 16.310547 24.042969 C 16.338209 24.169154 16.37187 24.295705 16.404297 24.421875 C 16.505087 24.813398 16.620932 25.204024 16.763672 25.59375 C 16.789025 25.663057 16.817179 25.731577 16.84375 25.800781 C 16.984278 26.166407 17.144835 26.529105 17.316406 26.890625 C 17.368382 27.000216 17.41812 27.109659 17.472656 27.21875 C 17.655455 27.584216 17.852359 27.946243 18.060547 28.304688 C 18.368426 28.835023 18.697324 29.356111 19.046875 29.865234 C 19.0586 29.882309 19.070269 29.898969 19.082031 29.916016 C 19.420707 30.406942 19.774937 30.883148 20.136719 31.347656 C 20.214504 31.447523 20.292662 31.542157 20.371094 31.640625 C 20.683349 32.032712 20.995851 32.411841 21.3125 32.779297 C 21.378272 32.855629 21.442096 32.930693 21.507812 33.005859 C 21.745572 33.277804 21.970582 33.521726 22.205078 33.777344 C 22.509104 34.108936 22.775473 34.38263 23.066406 34.683594 C 23.293913 34.919117 23.540985 35.195281 23.755859 35.410156 L 26.791016 38.445312 L 31.253906 44.386719 L 27.001953 46.675781 L 27.001953 46.679688 L 27.001953 46.683594 L 27.001953 53.675781 L 27.001953 53.683594 L 36.916016 63.597656 A 32 32 0 0 0 63.849609 34.982422 L 45.703125 16.835938 C 45.665843 16.798658 45.616444 16.763643 45.578125 16.726562 C 45.338432 16.494338 45.076396 16.266932 44.794922 16.042969 C 44.720833 15.984077 44.653236 15.923519 44.576172 15.865234 C 44.426052 15.751583 44.265142 15.640558 44.103516 15.529297 L 42.419922 13.845703 C 42.379361 13.805143 42.331106 13.768348 42.289062 13.728516 C 42.223532 13.666448 42.153165 13.607138 42.083984 13.546875 C 41.932092 13.414536 41.77153 13.287359 41.601562 13.164062 C 41.515926 13.101933 41.432147 13.038259 41.341797 12.978516 C 41.135433 12.8421 40.9133 12.713292 40.681641 12.589844 C 40.624683 12.559494 40.574149 12.525632 40.515625 12.496094 C 40.224807 12.349287 39.912618 12.213874 39.582031 12.087891 C 39.470438 12.04535 39.348685 12.008816 39.232422 11.96875 C 38.988919 11.884848 38.737116 11.805129 38.472656 11.732422 C 38.337358 11.695234 38.19755 11.661119 38.056641 11.626953 C 37.785215 11.561128 37.501695 11.501538 37.208984 11.447266 C 37.065036 11.420569 36.924597 11.392962 36.775391 11.369141 C 36.332516 11.298459 35.873281 11.235836 35.382812 11.191406 L 35.335938 11.193359 C 35.116276 11.060774 34.882281 10.942432 34.634766 10.837891 C 33.89218 10.524289 33.021501 10.340766 32 10.316406 z M 33.994141 53.675781 L 33.998047 53.675781 L 34.005859 53.683594 L 34.001953 53.683594 L 33.994141 53.675781 z " style="color:#000000;font-style:normal;font-variant:normal;font-weight:normal;font-stretch:normal;font-size:medium;line-height:normal;font-family:sans-serif;text-indent:0;text-align:start;text-decoration:none;text-decoration-line:none;text-decoration-style:solid;text-decoration-color:#000000;letter-spacing:normal;word-spacing:normal;text-transform:none;direction:ltr;block-progression:tb;writing-mode:lr-tb;baseline-shift:baseline;text-anchor:start;white-space:normal;clip-rule:nonzero;visibility:visible;isolation:auto;mix-blend-mode:normal;color-interpolation:sRGB;color-interpolation-filters:linearRGB;solid-color:#000000;solid-opacity:1;fill:#6cb7da;fill-opacity:1;fill-rule:evenodd;stroke:none;stroke-width:1px;stroke-linecap:butt;stroke-linejoin:miter;stroke-miterlimit:4;stroke-dasharray:none;stroke-dashoffset:0;stroke-opacity:1;color-rendering:auto;image-rendering:auto;shape-rendering:auto;text-rendering:auto"/>
      <g id="g10768" transform="translate(8.5810555e-8,-0.31626762)">
        <path sodipodi:nodetypes="cccccccccccccc" inkscape:connector-curvature="0" id="path5588-2" transform="translate(0,988.3622)" d="m 31.503906,43.373047 -4.675781,-6.224609 -0.798828,0.599609 5.226562,6.957031 -4.253906,2.291016 L 27.480469,47.875 32,45.4375 l 4.519531,2.4375 0.476563,-0.878906 -4.25,-2.291016 5.205078,-6.933594 -0.798828,-0.599609 -4.648438,6.189453 z" style="color:#000000;font-style:normal;font-variant:normal;font-weight:normal;font-stretch:normal;font-size:medium;line-height:normal;font-family:sans-serif;text-indent:0;text-align:start;text-decoration:none;text-decoration-line:none;text-decoration-style:solid;text-decoration-color:#000000;letter-spacing:normal;word-spacing:normal;text-transform:none;direction:ltr;block-progression:tb;writing-mode:lr-tb;baseline-shift:baseline;text-anchor:start;white-space:normal;clip-rule:nonzero;display:inline;overflow:visible;visibility:visible;opacity:1;isolation:auto;mix-blend-mode:normal;color-interpolation:sRGB;color-interpolation-filters:linearRGB;solid-color:#000000;solid-opacity:1;fill:#5b525d;fill-opacity:1;fill-rule:evenodd;stroke:none;stroke-width:1px;stroke-linecap:butt;stroke-linejoin:miter;stroke-miterlimit:4;stroke-dasharray:none;stroke-dashoffset:0;stroke-opacity:1;color-rendering:auto;image-rendering:auto;shape-rendering:auto;text-rendering:auto;enable-background:accumulate"/>
        <path style="color:#000000;clip-rule:nonzero;display:inline;overflow:visible;visibility:visible;opacity:1;isolation:auto;mix-blend-mode:normal;color-interpolation:sRGB;color-interpolation-filters:linearRGB;solid-color:#000000;solid-opacity:1;fill:#f19c40;fill-opacity:1;fill-rule:nonzero;stroke:none;stroke-width:1;stroke-linecap:round;stroke-linejoin:round;stroke-miterlimit:4;stroke-dasharray:none;stroke-dashoffset:0;stroke-opacity:1;color-rendering:auto;image-rendering:auto;shape-rendering:auto;text-rendering:auto;enable-background:accumulate" d="m 27.002929,1035.3622 9.994141,0 0,0 0,7 0,0 -9.994141,0 0,0 0,-7 z" id="path5568-0" inkscape:connector-curvature="0" sodipodi:nodetypes="ccccccccc"/>
        <path sodipodi:nodetypes="cccc" inkscape:connector-curvature="0" id="path5576-1" d="m 20.698007,1003.7078 c -12.3052857,7.3788 3.759669,20.9912 5.672745,22.8782 l 0.188895,-0.012 c 0.176079,-0.2077 0.723235,-0.3994 1.518778,-0.5465" style="fill:#ffffff;fill-opacity:1;fill-rule:evenodd;stroke:none;stroke-width:1px;stroke-linecap:round;stroke-linejoin:miter;stroke-opacity:1"/>
        <path style="fill:#f24b45;fill-opacity:1;fill-rule:evenodd;stroke:none;stroke-width:1px;stroke-linecap:round;stroke-linejoin:miter;stroke-opacity:1" d="m 28.664036,999.8862 c -18.56788,1.682 -2.711003,22.4964 -1.23431,26.2141 l 0.03033,0.064 c 0.492932,-0.1307 1.152328,-0.2391 1.922651,-0.315" id="path5574-6" inkscape:connector-curvature="0" sodipodi:nodetypes="cccc"/>
        <path style="fill:#ffffff;fill-opacity:1;fill-rule:evenodd;stroke:none;stroke-width:1px;stroke-linecap:round;stroke-linejoin:miter;stroke-opacity:1" d="m 43.356681,1003.7195 c 12.342824,7.4013 -3.909975,21.0632 -5.744447,22.8835 l -0.202164,-0.06 c -0.182668,-0.1756 -0.630754,-0.339 -1.268205,-0.4716" id="path5580-7" inkscape:connector-curvature="0" sodipodi:nodetypes="cccc"/>
        <path sodipodi:nodetypes="ccccccc" inkscape:connector-curvature="0" id="path5578-8" d="m 36.570269,1026.1005 c 1.476693,-3.7177 17.380445,-24.5477 -1.187435,-26.22977 l -0.06729,0.002 c 6.371475,3.87927 1.071082,19.47597 -0.565545,25.81467 l -0.04218,0.171 c 0.740074,0.076 1.373307,0.1828 1.848721,0.3104 z" style="fill:#f24b45;fill-opacity:1;fill-rule:evenodd;stroke:none;stroke-width:1px;stroke-linecap:round;stroke-linejoin:miter;stroke-opacity:1"/>
        <path style="fill:#ffffff;fill-opacity:1;fill-rule:evenodd;stroke:none;stroke-width:1px;stroke-linecap:round;stroke-linejoin:miter;stroke-opacity:1" d="m 29.25,1025.6875 c -1.863082,-7.2158 -8.529645,-26.42373 2.75,-26.69273 11.279645,0.269 4.613082,19.47693 2.75,26.69273" id="path5572-2" inkscape:connector-curvature="0" sodipodi:nodetypes="ccc"/>
        <ellipse style="color:#000000;clip-rule:nonzero;display:inline;overflow:visible;visibility:visible;opacity:1;isolation:auto;mix-blend-mode:normal;color-interpolation:sRGB;color-interpolation-filters:linearRGB;solid-color:#000000;solid-opacity:1;fill:#e5e5e5;fill-opacity:1;fill-rule:nonzero;stroke:none;stroke-width:1;stroke-linecap:round;stroke-linejoin:round;stroke-miterlimit:4;stroke-dasharray:none;stroke-dashoffset:0;stroke-opacity:1;color-rendering:auto;image-rendering:auto;shape-rendering:auto;text-rendering:auto;enable-background:accumulate" id="ellipse5570-6" cx="32" cy="1026.3622" rx="5.8375435" ry="1"/>
        <path sodipodi:nodetypes="ccccccc" inkscape:connector-curvature="0" id="path10748" transform="translate(0,988.3622)" d="m 32,37 c -0.166916,7.7e-5 -0.333736,0.0014 -0.5,0.0039 l 0.002,7.396485 c 0.165452,0.0032 0.33162,0.0051 0.498047,0.0059 0.167567,-6.7e-5 0.33504,-0.0014 0.501953,-0.0039 L 32.5,37.005859 C 32.3339,37.002681 32.167079,37.000726 32,37 Z" style="color:#000000;font-style:normal;font-variant:normal;font-weight:normal;font-stretch:normal;font-size:medium;line-height:normal;font-family:sans-serif;text-indent:0;text-align:start;text-decoration:none;text-decoration-line:none;text-decoration-style:solid;text-decoration-color:#000000;letter-spacing:normal;word-spacing:normal;text-transform:none;direction:ltr;block-progression:tb;writing-mode:lr-tb;baseline-shift:baseline;text-anchor:start;white-space:normal;clip-rule:nonzero;display:inline;overflow:visible;visibility:visible;opacity:1;isolation:auto;mix-blend-mode:normal;color-interpolation:sRGB;color-interpolation-filters:linearRGB;solid-color:#000000;solid-opacity:1;fill:#5b525d;fill-opacity:1;fill-rule:evenodd;stroke:none;stroke-width:1px;stroke-linecap:butt;stroke-linejoin:miter;stroke-miterlimit:4;stroke-dasharray:none;stroke-dashoffset:0;stroke-opacity:1;color-rendering:auto;image-rendering:auto;shape-rendering:auto;text-rendering:auto;enable-background:accumulate"/>
        <path style="color:#000000;clip-rule:nonzero;display:inline;overflow:visible;visibility:visible;opacity:1;isolation:auto;mix-blend-mode:normal;color-interpolation:sRGB;color-interpolation-filters:linearRGB;solid-color:#000000;solid-opacity:1;fill:#d67813;fill-opacity:1;fill-rule:nonzero;stroke:none;stroke-width:1;stroke-linecap:round;stroke-linejoin:round;stroke-miterlimit:4;stroke-dasharray:none;stroke-dashoffset:0;stroke-opacity:1;color-rendering:auto;image-rendering:auto;shape-rendering:auto;text-rendering:auto;enable-background:accumulate" d="m 31,1036.3622 2,0 0,0 0,5 0,0 -2,0 0,0 0,-5 z" id="path10760" inkscape:connector-curvature="0" sodipodi:nodetypes="ccccccccc"/>
        <path style="color:#000000;clip-rule:nonzero;display:inline;overflow:visible;visibility:visible;opacity:1;isolation:auto;mix-blend-mode:normal;color-interpolation:sRGB;color-interpolation-filters:linearRGB;solid-color:#000000;solid-opacity:1;fill:#d67813;fill-opacity:1;fill-rule:nonzero;stroke:none;stroke-width:1;stroke-linecap:round;stroke-linejoin:round;stroke-miterlimit:4;stroke-dasharray:none;stroke-dashoffset:0;stroke-opacity:1;color-rendering:auto;image-rendering:auto;shape-rendering:auto;text-rendering:auto;enable-background:accumulate" d="m 34,1036.3622 2,0 0,0 0,5 0,0 -2,0 0,0 0,-5 z" id="path10764" inkscape:connector-curvature="0" sodipodi:nodetypes="ccccccccc"/>
        <path sodipodi:nodetypes="ccccccccc" inkscape:connector-curvature="0" id="path10766" d="m 28,1036.3622 2,0 0,0 0,5 0,0 -2,0 0,0 0,-5 z" style="color:#000000;clip-rule:nonzero;display:inline;overflow:visible;visibility:visible;opacity:1;isolation:auto;mix-blend-mode:normal;color-interpolation:sRGB;color-interpolation-filters:linearRGB;solid-color:#000000;solid-opacity:1;fill:#d67813;fill-opacity:1;fill-rule:nonzero;stroke:none;stroke-width:1;stroke-linecap:round;stroke-linejoin:round;stroke-miterlimit:4;stroke-dasharray:none;stroke-dashoffset:0;stroke-opacity:1;color-rendering:auto;image-rendering:auto;shape-rendering:auto;text-rendering:auto;enable-background:accumulate"/>
      </g>
    </g>
  </g>

	<metadata>
		<rdf:RDF xmlns:rdf="http://www.w3.org/1999/02/22-rdf-syntax-ns#" xmlns:rdfs="http://www.w3.org/2000/01/rdf-schema#" xmlns:dc="http://purl.org/dc/elements/1.1/">
			<rdf:Description about="https://iconscout.com/legal#licenses" dc:title="Air-ballon-fly-holiday-hot-travel" dc:description="Air-ballon-fly-holiday-hot-travel" dc:publisher="Iconscout" dc:date="2017-03-02" dc:format="image/svg+xml" dc:language="en">
				<dc:creator>
					<rdf:Bag>
						<rdf:li>Devendra Karkar</rdf:li>
					</rdf:Bag>
				</dc:creator>
			</rdf:Description>
		</rdf:RDF>
    </metadata></svg>
