<svg xmlns="http://www.w3.org/2000/svg" width="26" height="26" viewBox="0 0 26 26"><g fill="#fff" transform="translate(5 -1031.362)"><circle cx="8" cy="1044.362" r="13" fill="#239fdb" fill-rule="evenodd"/><path fill="none" stroke="#fff" stroke-linecap="round" stroke-linejoin="round" d="m 13.003906,1.4960938 c -0.383428,0 -0.766742,0.1476062 -1.060547,0.4414062 L 9.4765625,4.4023438 3.4824219,3.3359375 2.0683594,4.75 7.3476562,6.5332031 4.3066406,9.5878906 3.125,9.3398438 1.7109375,10.753906 4.1992188,11.800781 5.2460938,14.289062 6.6621094,12.875 6.4199219,11.703125 9.4746094,8.6484375 11.269531,13.917969 12.683594,12.503906 11.623047,6.5 14.064453,4.0585938 c 0.58605,-0.5892001 0.58747,-1.5336938 0,-2.1210938 -0.2938,-0.2938 -0.677118,-0.4414062 -1.060547,-0.4414062 z" transform="translate(-.106 1036.47)"/></g></svg>